<svg xmlns="http://www.w3.org/2000/svg" width="1600" height="1066" viewBox="0 0 1600 1066" role="img" aria-label="Kapasite">
  <defs>
    <linearGradient id="bg" x1="0" y1="0" x2="1" y2="1">
      <stop offset="0" stop-color="#0D4525"/>
      <stop offset="1" stop-color="#062818"/>
    </linearGradient>
    <radialGradient id="glow" cx="0.22" cy="0.2" r="0.9">
      <stop offset="0" stop-color="#D4A017" stop-opacity="0.35"/>
      <stop offset="0.55" stop-color="#D4A017" stop-opacity="0"/>
    </radialGradient>
  </defs>
  <rect width="1600" height="1066" fill="url(#bg)"/>
  <rect width="1600" height="1066" fill="url(#glow)"/>
  <g><circle cx="0" cy="363" r="8" fill="#FAF7F2" opacity="0.09"/><circle cx="930" cy="241" r="5" fill="#FAF7F2" opacity="0.12"/><circle cx="667" cy="901" r="6" fill="#FAF7F2" opacity="0.09"/><circle cx="675" cy="150" r="7" fill="#FAF7F2" opacity="0.12"/><circle cx="237" cy="271" r="6" fill="#FAF7F2" opacity="0.09"/><circle cx="1243" cy="707" r="5" fill="#FAF7F2" opacity="0.15"/><circle cx="1478" cy="414" r="2" fill="#FAF7F2" opacity="0.13"/><circle cx="1165" cy="148" r="2" fill="#FAF7F2" opacity="0.09"/><circle cx="1058" cy="604" r="4" fill="#FAF7F2" opacity="0.16"/><circle cx="1403" cy="1025" r="6" fill="#FAF7F2" opacity="0.08"/><circle cx="244" cy="452" r="7" fill="#FAF7F2" opacity="0.16"/><circle cx="800" cy="425" r="7" fill="#FAF7F2" opacity="0.09"/><circle cx="1599" cy="428" r="4" fill="#FAF7F2" opacity="0.15"/><circle cx="1354" cy="77" r="7" fill="#FAF7F2" opacity="0.13"/><circle cx="88" cy="664" r="2" fill="#FAF7F2" opacity="0.18"/><circle cx="1366" cy="692" r="2" fill="#FAF7F2" opacity="0.13"/><circle cx="895" cy="321" r="7" fill="#FAF7F2" opacity="0.18"/><circle cx="442" cy="462" r="5" fill="#FAF7F2" opacity="0.15"/><circle cx="230" cy="166" r="5" fill="#FAF7F2" opacity="0.11"/><circle cx="84" cy="696" r="3" fill="#FAF7F2" opacity="0.12"/><circle cx="509" cy="146" r="5" fill="#FAF7F2" opacity="0.15"/><circle cx="1043" cy="826" r="4" fill="#FAF7F2" opacity="0.17"/><circle cx="1571" cy="344" r="6" fill="#FAF7F2" opacity="0.08"/><circle cx="934" cy="1000" r="5" fill="#FAF7F2" opacity="0.17"/><circle cx="958" cy="821" r="7" fill="#FAF7F2" opacity="0.15"/><circle cx="1170" cy="470" r="5" fill="#FAF7F2" opacity="0.17"/></g>
  <g><circle cx="2" cy="387" r="6" fill="#D4A017" opacity="0.36"/><circle cx="520" cy="962" r="3" fill="#D4A017" opacity="0.38"/><circle cx="1067" cy="405" r="6" fill="#D4A017" opacity="0.37"/><circle cx="1100" cy="601" r="2" fill="#D4A017" opacity="0.48"/><circle cx="947" cy="17" r="6" fill="#D4A017" opacity="0.45"/><circle cx="173" cy="697" r="6" fill="#D4A017" opacity="0.45"/><circle cx="1110" cy="591" r="3" fill="#D4A017" opacity="0.30"/><circle cx="1459" cy="594" r="3" fill="#D4A017" opacity="0.38"/><circle cx="1030" cy="283" r="3" fill="#D4A017" opacity="0.30"/><circle cx="813" cy="902" r="7" fill="#D4A017" opacity="0.27"/><circle cx="975" cy="743" r="4" fill="#D4A017" opacity="0.33"/><circle cx="1" cy="634" r="4" fill="#D4A017" opacity="0.43"/></g>
  <path d="M0 831.48 Q 480 703.5600000000001 960 788.84 T 1600 746.1999999999999 L 1600 1066 L 0 1066 Z" fill="#0E0E0E" opacity="0.22"/>
  <text x="800" y="533" text-anchor="middle" font-family="Georgia, 'Playfair Display', serif" font-size="117" font-weight="700" fill="#FAF7F2" letter-spacing="-1">Kapasite</text>
  <text x="800" y="629" text-anchor="middle" font-family="Inter, system-ui, sans-serif" font-size="37" fill="#FAF7F2" opacity="0.7" letter-spacing="3">ÜRETİM</text>
</svg>