<svg xmlns="http://www.w3.org/2000/svg" width="1600" height="1066" viewBox="0 0 1600 1066" role="img" aria-label="Lojistik">
  <defs>
    <linearGradient id="bg" x1="0" y1="0" x2="1" y2="1">
      <stop offset="0" stop-color="#0D4525"/>
      <stop offset="1" stop-color="#062818"/>
    </linearGradient>
    <radialGradient id="glow" cx="0.22" cy="0.2" r="0.9">
      <stop offset="0" stop-color="#3D8B5E" stop-opacity="0.35"/>
      <stop offset="0.55" stop-color="#3D8B5E" stop-opacity="0"/>
    </radialGradient>
  </defs>
  <rect width="1600" height="1066" fill="url(#bg)"/>
  <rect width="1600" height="1066" fill="url(#glow)"/>
  <g><circle cx="0" cy="503" r="6" fill="#FAF7F2" opacity="0.14"/><circle cx="183" cy="474" r="6" fill="#FAF7F2" opacity="0.08"/><circle cx="154" cy="831" r="2" fill="#FAF7F2" opacity="0.14"/><circle cx="405" cy="187" r="7" fill="#FAF7F2" opacity="0.07"/><circle cx="1311" cy="279" r="2" fill="#FAF7F2" opacity="0.10"/><circle cx="311" cy="373" r="2" fill="#FAF7F2" opacity="0.14"/><circle cx="1231" cy="976" r="3" fill="#FAF7F2" opacity="0.10"/><circle cx="230" cy="896" r="8" fill="#FAF7F2" opacity="0.17"/><circle cx="1477" cy="654" r="2" fill="#FAF7F2" opacity="0.09"/><circle cx="816" cy="765" r="6" fill="#FAF7F2" opacity="0.12"/><circle cx="639" cy="434" r="5" fill="#FAF7F2" opacity="0.14"/><circle cx="243" cy="502" r="5" fill="#FAF7F2" opacity="0.08"/><circle cx="435" cy="893" r="2" fill="#FAF7F2" opacity="0.10"/><circle cx="135" cy="370" r="3" fill="#FAF7F2" opacity="0.14"/><circle cx="867" cy="555" r="7" fill="#FAF7F2" opacity="0.08"/><circle cx="1213" cy="164" r="5" fill="#FAF7F2" opacity="0.16"/><circle cx="873" cy="848" r="2" fill="#FAF7F2" opacity="0.08"/><circle cx="358" cy="541" r="2" fill="#FAF7F2" opacity="0.08"/><circle cx="673" cy="74" r="2" fill="#FAF7F2" opacity="0.16"/><circle cx="1589" cy="749" r="7" fill="#FAF7F2" opacity="0.09"/><circle cx="233" cy="280" r="5" fill="#FAF7F2" opacity="0.12"/><circle cx="833" cy="431" r="2" fill="#FAF7F2" opacity="0.14"/><circle cx="1571" cy="225" r="8" fill="#FAF7F2" opacity="0.12"/><circle cx="1495" cy="481" r="3" fill="#FAF7F2" opacity="0.15"/><circle cx="17" cy="652" r="3" fill="#FAF7F2" opacity="0.09"/><circle cx="429" cy="969" r="7" fill="#FAF7F2" opacity="0.08"/></g>
  <g><circle cx="2" cy="527" r="5" fill="#3D8B5E" opacity="0.20"/><circle cx="1373" cy="130" r="4" fill="#3D8B5E" opacity="0.29"/><circle cx="554" cy="335" r="2" fill="#3D8B5E" opacity="0.22"/><circle cx="829" cy="638" r="3" fill="#3D8B5E" opacity="0.34"/><circle cx="421" cy="25" r="8" fill="#3D8B5E" opacity="0.47"/><circle cx="841" cy="363" r="4" fill="#3D8B5E" opacity="0.42"/><circle cx="864" cy="87" r="3" fill="#3D8B5E" opacity="0.49"/><circle cx="525" cy="275" r="2" fill="#3D8B5E" opacity="0.31"/><circle cx="1450" cy="333" r="7" fill="#3D8B5E" opacity="0.40"/><circle cx="225" cy="642" r="7" fill="#3D8B5E" opacity="0.38"/><circle cx="1370" cy="724" r="3" fill="#3D8B5E" opacity="0.26"/><circle cx="1043" cy="711" r="2" fill="#3D8B5E" opacity="0.40"/></g>
  <path d="M0 831.48 Q 480 703.5600000000001 960 788.84 T 1600 746.1999999999999 L 1600 1066 L 0 1066 Z" fill="#0E0E0E" opacity="0.22"/>
  <text x="800" y="533" text-anchor="middle" font-family="Georgia, 'Playfair Display', serif" font-size="117" font-weight="700" fill="#FAF7F2" letter-spacing="-1">Lojistik</text>
  <text x="800" y="629" text-anchor="middle" font-family="Inter, system-ui, sans-serif" font-size="37" fill="#FAF7F2" opacity="0.7" letter-spacing="3">ÜRETİM</text>
</svg>