<svg xmlns="http://www.w3.org/2000/svg" width="1600" height="1066" viewBox="0 0 1600 1066" role="img" aria-label="Sertifikalar">
  <defs>
    <linearGradient id="bg" x1="0" y1="0" x2="1" y2="1">
      <stop offset="0" stop-color="#0D4525"/>
      <stop offset="1" stop-color="#062818"/>
    </linearGradient>
    <radialGradient id="glow" cx="0.22" cy="0.2" r="0.9">
      <stop offset="0" stop-color="#D4A017" stop-opacity="0.35"/>
      <stop offset="0.55" stop-color="#D4A017" stop-opacity="0"/>
    </radialGradient>
  </defs>
  <rect width="1600" height="1066" fill="url(#bg)"/>
  <rect width="1600" height="1066" fill="url(#glow)"/>
  <g><circle cx="0" cy="83" r="5" fill="#FAF7F2" opacity="0.10"/><circle cx="825" cy="840" r="5" fill="#FAF7F2" opacity="0.08"/><circle cx="93" cy="1040" r="7" fill="#FAF7F2" opacity="0.08"/><circle cx="1216" cy="76" r="6" fill="#FAF7F2" opacity="0.12"/><circle cx="1289" cy="254" r="7" fill="#FAF7F2" opacity="0.08"/><circle cx="1507" cy="309" r="4" fill="#FAF7F2" opacity="0.16"/><circle cx="370" cy="357" r="7" fill="#FAF7F2" opacity="0.10"/><circle cx="1434" cy="786" r="3" fill="#FAF7F2" opacity="0.14"/><circle cx="218" cy="503" r="7" fill="#FAF7F2" opacity="0.09"/><circle cx="979" cy="478" r="6" fill="#FAF7F2" opacity="0.11"/><circle cx="1053" cy="489" r="4" fill="#FAF7F2" opacity="0.11"/><circle cx="315" cy="270" r="5" fill="#FAF7F2" opacity="0.12"/><circle cx="726" cy="564" r="7" fill="#FAF7F2" opacity="0.16"/><circle cx="594" cy="557" r="3" fill="#FAF7F2" opacity="0.09"/><circle cx="131" cy="882" r="3" fill="#FAF7F2" opacity="0.17"/><circle cx="71" cy="682" r="2" fill="#FAF7F2" opacity="0.17"/><circle cx="937" cy="334" r="4" fill="#FAF7F2" opacity="0.16"/><circle cx="609" cy="305" r="5" fill="#FAF7F2" opacity="0.17"/><circle cx="943" cy="350" r="5" fill="#FAF7F2" opacity="0.11"/><circle cx="273" cy="589" r="6" fill="#FAF7F2" opacity="0.17"/><circle cx="1060" cy="945" r="5" fill="#FAF7F2" opacity="0.11"/><circle cx="1465" cy="550" r="7" fill="#FAF7F2" opacity="0.12"/><circle cx="1573" cy="582" r="3" fill="#FAF7F2" opacity="0.13"/><circle cx="1410" cy="972" r="4" fill="#FAF7F2" opacity="0.10"/><circle cx="1239" cy="93" r="4" fill="#FAF7F2" opacity="0.17"/><circle cx="1050" cy="539" r="7" fill="#FAF7F2" opacity="0.13"/></g>
  <g><circle cx="2" cy="107" r="3" fill="#D4A017" opacity="0.39"/><circle cx="416" cy="495" r="3" fill="#D4A017" opacity="0.28"/><circle cx="494" cy="544" r="7" fill="#D4A017" opacity="0.36"/><circle cx="41" cy="527" r="8" fill="#D4A017" opacity="0.46"/><circle cx="399" cy="1" r="7" fill="#D4A017" opacity="0.41"/><circle cx="437" cy="299" r="5" fill="#D4A017" opacity="0.49"/><circle cx="3" cy="534" r="8" fill="#D4A017" opacity="0.20"/><circle cx="128" cy="165" r="4" fill="#D4A017" opacity="0.23"/><circle cx="190" cy="182" r="6" fill="#D4A017" opacity="0.40"/><circle cx="389" cy="355" r="7" fill="#D4A017" opacity="0.35"/><circle cx="184" cy="780" r="8" fill="#D4A017" opacity="0.48"/><circle cx="1116" cy="479" r="3" fill="#D4A017" opacity="0.20"/></g>
  <path d="M0 831.48 Q 480 703.5600000000001 960 788.84 T 1600 746.1999999999999 L 1600 1066 L 0 1066 Z" fill="#0E0E0E" opacity="0.22"/>
  <text x="800" y="533" text-anchor="middle" font-family="Georgia, 'Playfair Display', serif" font-size="117" font-weight="700" fill="#FAF7F2" letter-spacing="-1">Sertifikalar</text>
  <text x="800" y="629" text-anchor="middle" font-family="Inter, system-ui, sans-serif" font-size="37" fill="#FAF7F2" opacity="0.7" letter-spacing="3">ÜRETİM</text>
</svg>