<svg xmlns="http://www.w3.org/2000/svg" width="2200" height="1238" viewBox="0 0 2200 1238" role="img" aria-label="Biber">
  <defs>
    <linearGradient id="bg" x1="0" y1="0" x2="1" y2="1">
      <stop offset="0" stop-color="#3a1410"/>
      <stop offset="1" stop-color="#0E0E0E"/>
    </linearGradient>
    <radialGradient id="glow" cx="0.22" cy="0.2" r="0.9">
      <stop offset="0" stop-color="#C0392B" stop-opacity="0.35"/>
      <stop offset="0.55" stop-color="#C0392B" stop-opacity="0"/>
    </radialGradient>
  </defs>
  <rect width="2200" height="1238" fill="url(#bg)"/>
  <rect width="2200" height="1238" fill="url(#glow)"/>
  <g><circle cx="0" cy="879" r="7" fill="#FAF7F2" opacity="0.18"/><circle cx="2037" cy="1048" r="6" fill="#FAF7F2" opacity="0.16"/><circle cx="1828" cy="187" r="8" fill="#FAF7F2" opacity="0.15"/><circle cx="1766" cy="556" r="6" fill="#FAF7F2" opacity="0.17"/><circle cx="1595" cy="124" r="8" fill="#FAF7F2" opacity="0.17"/><circle cx="940" cy="1149" r="6" fill="#FAF7F2" opacity="0.08"/><circle cx="0" cy="1052" r="3" fill="#FAF7F2" opacity="0.13"/><circle cx="898" cy="143" r="7" fill="#FAF7F2" opacity="0.17"/><circle cx="906" cy="764" r="5" fill="#FAF7F2" opacity="0.10"/><circle cx="493" cy="1032" r="7" fill="#FAF7F2" opacity="0.15"/><circle cx="465" cy="957" r="4" fill="#FAF7F2" opacity="0.16"/><circle cx="1033" cy="1170" r="3" fill="#FAF7F2" opacity="0.13"/><circle cx="1200" cy="834" r="8" fill="#FAF7F2" opacity="0.09"/><circle cx="200" cy="710" r="6" fill="#FAF7F2" opacity="0.09"/><circle cx="714" cy="829" r="7" fill="#FAF7F2" opacity="0.16"/><circle cx="1673" cy="692" r="6" fill="#FAF7F2" opacity="0.09"/><circle cx="1818" cy="522" r="5" fill="#FAF7F2" opacity="0.09"/><circle cx="706" cy="1187" r="5" fill="#FAF7F2" opacity="0.18"/><circle cx="1325" cy="1089" r="7" fill="#FAF7F2" opacity="0.08"/><circle cx="512" cy="806" r="7" fill="#FAF7F2" opacity="0.07"/><circle cx="1676" cy="780" r="3" fill="#FAF7F2" opacity="0.17"/><circle cx="632" cy="228" r="5" fill="#FAF7F2" opacity="0.12"/><circle cx="2184" cy="683" r="2" fill="#FAF7F2" opacity="0.18"/><circle cx="1239" cy="833" r="6" fill="#FAF7F2" opacity="0.18"/><circle cx="786" cy="1163" r="5" fill="#FAF7F2" opacity="0.12"/><circle cx="2167" cy="103" r="6" fill="#FAF7F2" opacity="0.11"/></g>
  <g><circle cx="2" cy="907" r="6" fill="#C0392B" opacity="0.31"/><circle cx="1474" cy="648" r="4" fill="#C0392B" opacity="0.21"/><circle cx="179" cy="849" r="8" fill="#C0392B" opacity="0.25"/><circle cx="150" cy="1080" r="8" fill="#C0392B" opacity="0.30"/><circle cx="371" cy="1067" r="8" fill="#C0392B" opacity="0.35"/><circle cx="1669" cy="1137" r="8" fill="#C0392B" opacity="0.26"/><circle cx="1696" cy="20" r="4" fill="#C0392B" opacity="0.27"/><circle cx="1302" cy="660" r="8" fill="#C0392B" opacity="0.31"/><circle cx="868" cy="391" r="5" fill="#C0392B" opacity="0.43"/><circle cx="1882" cy="889" r="8" fill="#C0392B" opacity="0.48"/><circle cx="1470" cy="56" r="8" fill="#C0392B" opacity="0.31"/><circle cx="2134" cy="174" r="6" fill="#C0392B" opacity="0.23"/></g>
  <path d="M0 965.64 Q 660 817.08 1320 916.12 T 2200 866.5999999999999 L 2200 1238 L 0 1238 Z" fill="#0E0E0E" opacity="0.22"/>
  <text x="1100" y="619" text-anchor="middle" font-family="Georgia, 'Playfair Display', serif" font-size="136" font-weight="700" fill="#FAF7F2" letter-spacing="-1">Biber</text>
  <text x="1100" y="730" text-anchor="middle" font-family="Inter, system-ui, sans-serif" font-size="43" fill="#FAF7F2" opacity="0.7" letter-spacing="3">EREN TARIM</text>
</svg>