<svg xmlns="http://www.w3.org/2000/svg" width="2200" height="1238" viewBox="0 0 2200 1238" role="img" aria-label="Tarla">
  <defs>
    <linearGradient id="bg" x1="0" y1="0" x2="1" y2="1">
      <stop offset="0" stop-color="#062818"/>
      <stop offset="1" stop-color="#0E0E0E"/>
    </linearGradient>
    <radialGradient id="glow" cx="0.22" cy="0.2" r="0.9">
      <stop offset="0" stop-color="#D4A017" stop-opacity="0.35"/>
      <stop offset="0.55" stop-color="#D4A017" stop-opacity="0"/>
    </radialGradient>
  </defs>
  <rect width="2200" height="1238" fill="url(#bg)"/>
  <rect width="2200" height="1238" fill="url(#glow)"/>
  <g><circle cx="0" cy="553" r="4" fill="#FAF7F2" opacity="0.08"/><circle cx="1893" cy="506" r="5" fill="#FAF7F2" opacity="0.12"/><circle cx="1039" cy="349" r="3" fill="#FAF7F2" opacity="0.15"/><circle cx="309" cy="471" r="6" fill="#FAF7F2" opacity="0.16"/><circle cx="842" cy="105" r="3" fill="#FAF7F2" opacity="0.15"/><circle cx="1303" cy="686" r="5" fill="#FAF7F2" opacity="0.10"/><circle cx="677" cy="986" r="2" fill="#FAF7F2" opacity="0.09"/><circle cx="1267" cy="883" r="2" fill="#FAF7F2" opacity="0.11"/><circle cx="1951" cy="646" r="3" fill="#FAF7F2" opacity="0.14"/><circle cx="2110" cy="397" r="7" fill="#FAF7F2" opacity="0.07"/><circle cx="1578" cy="1000" r="8" fill="#FAF7F2" opacity="0.10"/><circle cx="367" cy="990" r="8" fill="#FAF7F2" opacity="0.15"/><circle cx="2200" cy="991" r="5" fill="#FAF7F2" opacity="0.10"/><circle cx="1354" cy="30" r="8" fill="#FAF7F2" opacity="0.16"/><circle cx="774" cy="1082" r="2" fill="#FAF7F2" opacity="0.14"/><circle cx="2093" cy="681" r="6" fill="#FAF7F2" opacity="0.13"/><circle cx="1877" cy="537" r="8" fill="#FAF7F2" opacity="0.18"/><circle cx="936" cy="1004" r="5" fill="#FAF7F2" opacity="0.10"/><circle cx="105" cy="64" r="7" fill="#FAF7F2" opacity="0.08"/><circle cx="772" cy="682" r="4" fill="#FAF7F2" opacity="0.12"/><circle cx="233" cy="469" r="3" fill="#FAF7F2" opacity="0.13"/><circle cx="1212" cy="1145" r="3" fill="#FAF7F2" opacity="0.18"/><circle cx="2187" cy="959" r="5" fill="#FAF7F2" opacity="0.11"/><circle cx="1895" cy="800" r="5" fill="#FAF7F2" opacity="0.11"/><circle cx="1172" cy="318" r="8" fill="#FAF7F2" opacity="0.13"/><circle cx="2003" cy="182" r="3" fill="#FAF7F2" opacity="0.18"/></g>
  <g><circle cx="2" cy="581" r="3" fill="#D4A017" opacity="0.34"/><circle cx="1330" cy="106" r="3" fill="#D4A017" opacity="0.40"/><circle cx="1590" cy="1010" r="3" fill="#D4A017" opacity="0.24"/><circle cx="894" cy="994" r="7" fill="#D4A017" opacity="0.28"/><circle cx="1818" cy="1048" r="3" fill="#D4A017" opacity="0.31"/><circle cx="2032" cy="675" r="7" fill="#D4A017" opacity="0.30"/><circle cx="172" cy="1191" r="3" fill="#D4A017" opacity="0.48"/><circle cx="1672" cy="162" r="3" fill="#D4A017" opacity="0.45"/><circle cx="1914" cy="274" r="8" fill="#D4A017" opacity="0.23"/><circle cx="1299" cy="254" r="2" fill="#D4A017" opacity="0.26"/><circle cx="383" cy="100" r="5" fill="#D4A017" opacity="0.46"/><circle cx="1467" cy="1232" r="5" fill="#D4A017" opacity="0.30"/></g>
  <path d="M0 965.64 Q 660 817.08 1320 916.12 T 2200 866.5999999999999 L 2200 1238 L 0 1238 Z" fill="#0E0E0E" opacity="0.22"/>
  <text x="1100" y="619" text-anchor="middle" font-family="Georgia, 'Playfair Display', serif" font-size="136" font-weight="700" fill="#FAF7F2" letter-spacing="-1">Tarla</text>
  <text x="1100" y="730" text-anchor="middle" font-family="Inter, system-ui, sans-serif" font-size="43" fill="#FAF7F2" opacity="0.7" letter-spacing="3">EREN TARIM</text>
</svg>