<svg xmlns="http://www.w3.org/2000/svg" width="2200" height="1238" viewBox="0 0 2200 1238" role="img" aria-label="Değirmen">
  <defs>
    <linearGradient id="bg" x1="0" y1="0" x2="1" y2="1">
      <stop offset="0" stop-color="#0D4525"/>
      <stop offset="1" stop-color="#062818"/>
    </linearGradient>
    <radialGradient id="glow" cx="0.22" cy="0.2" r="0.9">
      <stop offset="0" stop-color="#FAF7F2" stop-opacity="0.35"/>
      <stop offset="0.55" stop-color="#FAF7F2" stop-opacity="0"/>
    </radialGradient>
  </defs>
  <rect width="2200" height="1238" fill="url(#bg)"/>
  <rect width="2200" height="1238" fill="url(#glow)"/>
  <g><circle cx="0" cy="716" r="2" fill="#FAF7F2" opacity="0.13"/><circle cx="865" cy="777" r="5" fill="#FAF7F2" opacity="0.09"/><circle cx="333" cy="268" r="6" fill="#FAF7F2" opacity="0.10"/><circle cx="2137" cy="514" r="6" fill="#FAF7F2" opacity="0.11"/><circle cx="118" cy="114" r="6" fill="#FAF7F2" opacity="0.16"/><circle cx="22" cy="299" r="2" fill="#FAF7F2" opacity="0.09"/><circle cx="339" cy="400" r="3" fill="#FAF7F2" opacity="0.16"/><circle cx="2182" cy="513" r="8" fill="#FAF7F2" opacity="0.09"/><circle cx="329" cy="705" r="7" fill="#FAF7F2" opacity="0.17"/><circle cx="1302" cy="95" r="7" fill="#FAF7F2" opacity="0.11"/><circle cx="2122" cy="979" r="6" fill="#FAF7F2" opacity="0.08"/><circle cx="1800" cy="1080" r="5" fill="#FAF7F2" opacity="0.14"/><circle cx="600" cy="293" r="3" fill="#FAF7F2" opacity="0.15"/><circle cx="1877" cy="370" r="4" fill="#FAF7F2" opacity="0.18"/><circle cx="1844" cy="956" r="7" fill="#FAF7F2" opacity="0.15"/><circle cx="1883" cy="67" r="3" fill="#FAF7F2" opacity="0.16"/><circle cx="1847" cy="1149" r="3" fill="#FAF7F2" opacity="0.08"/><circle cx="821" cy="1096" r="2" fill="#FAF7F2" opacity="0.14"/><circle cx="715" cy="1196" r="4" fill="#FAF7F2" opacity="0.13"/><circle cx="642" cy="744" r="3" fill="#FAF7F2" opacity="0.10"/><circle cx="2054" cy="624" r="3" fill="#FAF7F2" opacity="0.10"/><circle cx="922" cy="686" r="7" fill="#FAF7F2" opacity="0.15"/><circle cx="2186" cy="821" r="7" fill="#FAF7F2" opacity="0.14"/><circle cx="467" cy="197" r="3" fill="#FAF7F2" opacity="0.09"/><circle cx="2079" cy="121" r="3" fill="#FAF7F2" opacity="0.18"/><circle cx="985" cy="761" r="5" fill="#FAF7F2" opacity="0.09"/></g>
  <g><circle cx="2" cy="744" r="7" fill="#FAF7F2" opacity="0.47"/><circle cx="302" cy="377" r="3" fill="#FAF7F2" opacity="0.31"/><circle cx="884" cy="930" r="5" fill="#FAF7F2" opacity="0.40"/><circle cx="522" cy="1037" r="8" fill="#FAF7F2" opacity="0.44"/><circle cx="1095" cy="1058" r="5" fill="#FAF7F2" opacity="0.33"/><circle cx="750" cy="287" r="4" fill="#FAF7F2" opacity="0.28"/><circle cx="2034" cy="605" r="3" fill="#FAF7F2" opacity="0.38"/><circle cx="387" cy="1030" r="2" fill="#FAF7F2" opacity="0.38"/><circle cx="291" cy="332" r="6" fill="#FAF7F2" opacity="0.33"/><circle cx="490" cy="1190" r="2" fill="#FAF7F2" opacity="0.37"/><circle cx="927" cy="78" r="3" fill="#FAF7F2" opacity="0.39"/><circle cx="701" cy="84" r="3" fill="#FAF7F2" opacity="0.26"/></g>
  <path d="M0 965.64 Q 660 817.08 1320 916.12 T 2200 866.5999999999999 L 2200 1238 L 0 1238 Z" fill="#0E0E0E" opacity="0.22"/>
  <text x="1100" y="619" text-anchor="middle" font-family="Georgia, 'Playfair Display', serif" font-size="136" font-weight="700" fill="#FAF7F2" letter-spacing="-1">Değirmen</text>
  <text x="1100" y="730" text-anchor="middle" font-family="Inter, system-ui, sans-serif" font-size="43" fill="#FAF7F2" opacity="0.7" letter-spacing="3">EREN TARIM</text>
</svg>