<svg xmlns="http://www.w3.org/2000/svg" width="2200" height="1238" viewBox="0 0 2200 1238" role="img" aria-label="İhracat">
  <defs>
    <linearGradient id="bg" x1="0" y1="0" x2="1" y2="1">
      <stop offset="0" stop-color="#062818"/>
      <stop offset="1" stop-color="#0a1f3a"/>
    </linearGradient>
    <radialGradient id="glow" cx="0.22" cy="0.2" r="0.9">
      <stop offset="0" stop-color="#D4A017" stop-opacity="0.35"/>
      <stop offset="0.55" stop-color="#D4A017" stop-opacity="0"/>
    </radialGradient>
  </defs>
  <rect width="2200" height="1238" fill="url(#bg)"/>
  <rect width="2200" height="1238" fill="url(#glow)"/>
  <g><circle cx="0" cy="1042" r="5" fill="#FAF7F2" opacity="0.12"/><circle cx="1009" cy="81" r="6" fill="#FAF7F2" opacity="0.13"/><circle cx="1122" cy="106" r="4" fill="#FAF7F2" opacity="0.10"/><circle cx="1394" cy="599" r="6" fill="#FAF7F2" opacity="0.12"/><circle cx="871" cy="133" r="4" fill="#FAF7F2" opacity="0.17"/><circle cx="1859" cy="761" r="3" fill="#FAF7F2" opacity="0.07"/><circle cx="1862" cy="467" r="4" fill="#FAF7F2" opacity="0.09"/><circle cx="1813" cy="1011" r="6" fill="#FAF7F2" opacity="0.14"/><circle cx="1484" cy="823" r="4" fill="#FAF7F2" opacity="0.14"/><circle cx="1885" cy="730" r="7" fill="#FAF7F2" opacity="0.08"/><circle cx="1009" cy="936" r="3" fill="#FAF7F2" opacity="0.13"/><circle cx="267" cy="22" r="7" fill="#FAF7F2" opacity="0.11"/><circle cx="1799" cy="136" r="6" fill="#FAF7F2" opacity="0.15"/><circle cx="723" cy="1051" r="2" fill="#FAF7F2" opacity="0.11"/><circle cx="1785" cy="702" r="6" fill="#FAF7F2" opacity="0.16"/><circle cx="1463" cy="78" r="3" fill="#FAF7F2" opacity="0.12"/><circle cx="1789" cy="1134" r="6" fill="#FAF7F2" opacity="0.10"/><circle cx="591" cy="40" r="2" fill="#FAF7F2" opacity="0.11"/><circle cx="1934" cy="982" r="4" fill="#FAF7F2" opacity="0.13"/><circle cx="382" cy="868" r="6" fill="#FAF7F2" opacity="0.16"/><circle cx="1297" cy="935" r="3" fill="#FAF7F2" opacity="0.14"/><circle cx="342" cy="1007" r="4" fill="#FAF7F2" opacity="0.09"/><circle cx="2183" cy="545" r="4" fill="#FAF7F2" opacity="0.10"/><circle cx="2011" cy="230" r="4" fill="#FAF7F2" opacity="0.16"/><circle cx="1692" cy="967" r="7" fill="#FAF7F2" opacity="0.16"/><circle cx="1149" cy="682" r="2" fill="#FAF7F2" opacity="0.13"/></g>
  <g><circle cx="2" cy="1069" r="4" fill="#D4A017" opacity="0.45"/><circle cx="446" cy="919" r="4" fill="#D4A017" opacity="0.41"/><circle cx="1673" cy="768" r="4" fill="#D4A017" opacity="0.41"/><circle cx="1978" cy="1122" r="2" fill="#D4A017" opacity="0.46"/><circle cx="1848" cy="1077" r="4" fill="#D4A017" opacity="0.37"/><circle cx="387" cy="749" r="5" fill="#D4A017" opacity="0.24"/><circle cx="1357" cy="672" r="4" fill="#D4A017" opacity="0.47"/><circle cx="17" cy="290" r="7" fill="#D4A017" opacity="0.24"/><circle cx="1446" cy="450" r="3" fill="#D4A017" opacity="0.23"/><circle cx="1074" cy="587" r="8" fill="#D4A017" opacity="0.28"/><circle cx="2014" cy="35" r="6" fill="#D4A017" opacity="0.24"/><circle cx="1368" cy="264" r="4" fill="#D4A017" opacity="0.49"/></g>
  <path d="M0 965.64 Q 660 817.08 1320 916.12 T 2200 866.5999999999999 L 2200 1238 L 0 1238 Z" fill="#0E0E0E" opacity="0.22"/>
  <text x="1100" y="619" text-anchor="middle" font-family="Georgia, 'Playfair Display', serif" font-size="136" font-weight="700" fill="#FAF7F2" letter-spacing="-1">İhracat</text>
  <text x="1100" y="730" text-anchor="middle" font-family="Inter, system-ui, sans-serif" font-size="43" fill="#FAF7F2" opacity="0.7" letter-spacing="3">EREN TARIM</text>
</svg>