<svg xmlns="http://www.w3.org/2000/svg" width="1400" height="900" viewBox="0 0 1400 900" role="img" aria-label="Detay">
  <defs>
    <linearGradient id="bg" x1="0" y1="0" x2="1" y2="1">
      <stop offset="0" stop-color="#0D4525"/>
      <stop offset="1" stop-color="#0E0E0E"/>
    </linearGradient>
    <radialGradient id="glow" cx="0.22" cy="0.2" r="0.9">
      <stop offset="0" stop-color="#D4A017" stop-opacity="0.35"/>
      <stop offset="0.55" stop-color="#D4A017" stop-opacity="0"/>
    </radialGradient>
  </defs>
  <rect width="1400" height="900" fill="url(#bg)"/>
  <rect width="1400" height="900" fill="url(#glow)"/>
  <g><circle cx="2" cy="395" r="7" fill="#FAF7F2" opacity="0.09"/><circle cx="121" cy="10" r="5" fill="#FAF7F2" opacity="0.12"/><circle cx="754" cy="786" r="3" fill="#FAF7F2" opacity="0.12"/><circle cx="34" cy="854" r="6" fill="#FAF7F2" opacity="0.12"/><circle cx="1261" cy="493" r="2" fill="#FAF7F2" opacity="0.12"/><circle cx="1281" cy="37" r="4" fill="#FAF7F2" opacity="0.07"/><circle cx="111" cy="821" r="5" fill="#FAF7F2" opacity="0.12"/><circle cx="862" cy="845" r="8" fill="#FAF7F2" opacity="0.09"/><circle cx="1054" cy="486" r="8" fill="#FAF7F2" opacity="0.18"/><circle cx="224" cy="35" r="3" fill="#FAF7F2" opacity="0.12"/><circle cx="917" cy="443" r="4" fill="#FAF7F2" opacity="0.12"/><circle cx="1337" cy="549" r="8" fill="#FAF7F2" opacity="0.16"/><circle cx="1141" cy="647" r="2" fill="#FAF7F2" opacity="0.07"/><circle cx="1110" cy="231" r="3" fill="#FAF7F2" opacity="0.12"/><circle cx="1106" cy="386" r="7" fill="#FAF7F2" opacity="0.09"/><circle cx="1169" cy="368" r="7" fill="#FAF7F2" opacity="0.09"/><circle cx="441" cy="260" r="5" fill="#FAF7F2" opacity="0.10"/><circle cx="701" cy="741" r="6" fill="#FAF7F2" opacity="0.09"/><circle cx="971" cy="610" r="5" fill="#FAF7F2" opacity="0.11"/><circle cx="192" cy="60" r="2" fill="#FAF7F2" opacity="0.16"/><circle cx="548" cy="179" r="3" fill="#FAF7F2" opacity="0.11"/><circle cx="725" cy="484" r="8" fill="#FAF7F2" opacity="0.16"/><circle cx="1247" cy="543" r="7" fill="#FAF7F2" opacity="0.13"/><circle cx="776" cy="151" r="7" fill="#FAF7F2" opacity="0.08"/><circle cx="1160" cy="129" r="3" fill="#FAF7F2" opacity="0.13"/><circle cx="1397" cy="46" r="6" fill="#FAF7F2" opacity="0.16"/></g>
  <g><circle cx="3" cy="415" r="6" fill="#D4A017" opacity="0.38"/><circle cx="1162" cy="619" r="3" fill="#D4A017" opacity="0.40"/><circle cx="1104" cy="367" r="2" fill="#D4A017" opacity="0.45"/><circle cx="405" cy="334" r="2" fill="#D4A017" opacity="0.47"/><circle cx="483" cy="279" r="2" fill="#D4A017" opacity="0.22"/><circle cx="344" cy="29" r="6" fill="#D4A017" opacity="0.24"/><circle cx="1190" cy="71" r="6" fill="#D4A017" opacity="0.25"/><circle cx="1120" cy="321" r="3" fill="#D4A017" opacity="0.40"/><circle cx="1030" cy="215" r="7" fill="#D4A017" opacity="0.34"/><circle cx="1108" cy="831" r="4" fill="#D4A017" opacity="0.38"/><circle cx="156" cy="689" r="7" fill="#D4A017" opacity="0.20"/><circle cx="638" cy="725" r="5" fill="#D4A017" opacity="0.32"/></g>
  <path d="M0 702 Q 420 594 840 666 T 1400 630 L 1400 900 L 0 900 Z" fill="#0E0E0E" opacity="0.22"/>
  <text x="700" y="450" text-anchor="middle" font-family="Georgia, 'Playfair Display', serif" font-size="99" font-weight="700" fill="#FAF7F2" letter-spacing="-1">Detay</text>
  <text x="700" y="531" text-anchor="middle" font-family="Inter, system-ui, sans-serif" font-size="32" fill="#FAF7F2" opacity="0.7" letter-spacing="3">ZANAAT</text>
</svg>