<svg xmlns="http://www.w3.org/2000/svg" width="1400" height="900" viewBox="0 0 1400 900" role="img" aria-label="Detay">
  <defs>
    <linearGradient id="bg" x1="0" y1="0" x2="1" y2="1">
      <stop offset="0" stop-color="#0D4525"/>
      <stop offset="1" stop-color="#0E0E0E"/>
    </linearGradient>
    <radialGradient id="glow" cx="0.22" cy="0.2" r="0.9">
      <stop offset="0" stop-color="#D4A017" stop-opacity="0.35"/>
      <stop offset="0.55" stop-color="#D4A017" stop-opacity="0"/>
    </radialGradient>
  </defs>
  <rect width="1400" height="900" fill="url(#bg)"/>
  <rect width="1400" height="900" fill="url(#glow)"/>
  <g><circle cx="2" cy="632" r="4" fill="#FAF7F2" opacity="0.08"/><circle cx="212" cy="404" r="5" fill="#FAF7F2" opacity="0.16"/><circle cx="1256" cy="668" r="7" fill="#FAF7F2" opacity="0.12"/><circle cx="960" cy="16" r="7" fill="#FAF7F2" opacity="0.13"/><circle cx="341" cy="506" r="7" fill="#FAF7F2" opacity="0.13"/><circle cx="1050" cy="373" r="5" fill="#FAF7F2" opacity="0.17"/><circle cx="1081" cy="870" r="6" fill="#FAF7F2" opacity="0.15"/><circle cx="627" cy="308" r="7" fill="#FAF7F2" opacity="0.15"/><circle cx="389" cy="572" r="5" fill="#FAF7F2" opacity="0.14"/><circle cx="596" cy="496" r="3" fill="#FAF7F2" opacity="0.09"/><circle cx="208" cy="412" r="6" fill="#FAF7F2" opacity="0.17"/><circle cx="362" cy="680" r="3" fill="#FAF7F2" opacity="0.14"/><circle cx="504" cy="532" r="6" fill="#FAF7F2" opacity="0.18"/><circle cx="375" cy="725" r="8" fill="#FAF7F2" opacity="0.16"/><circle cx="1068" cy="202" r="5" fill="#FAF7F2" opacity="0.10"/><circle cx="902" cy="376" r="7" fill="#FAF7F2" opacity="0.15"/><circle cx="404" cy="250" r="2" fill="#FAF7F2" opacity="0.12"/><circle cx="555" cy="874" r="6" fill="#FAF7F2" opacity="0.18"/><circle cx="347" cy="454" r="5" fill="#FAF7F2" opacity="0.10"/><circle cx="27" cy="150" r="6" fill="#FAF7F2" opacity="0.11"/><circle cx="66" cy="404" r="3" fill="#FAF7F2" opacity="0.15"/><circle cx="356" cy="718" r="5" fill="#FAF7F2" opacity="0.10"/><circle cx="1246" cy="342" r="4" fill="#FAF7F2" opacity="0.09"/><circle cx="359" cy="175" r="8" fill="#FAF7F2" opacity="0.15"/><circle cx="913" cy="744" r="6" fill="#FAF7F2" opacity="0.11"/><circle cx="102" cy="889" r="4" fill="#FAF7F2" opacity="0.09"/></g>
  <g><circle cx="3" cy="652" r="3" fill="#D4A017" opacity="0.35"/><circle cx="1254" cy="113" r="3" fill="#D4A017" opacity="0.21"/><circle cx="207" cy="250" r="7" fill="#D4A017" opacity="0.46"/><circle cx="1332" cy="397" r="3" fill="#D4A017" opacity="0.49"/><circle cx="962" cy="292" r="7" fill="#D4A017" opacity="0.26"/><circle cx="113" cy="365" r="7" fill="#D4A017" opacity="0.50"/><circle cx="759" cy="119" r="7" fill="#D4A017" opacity="0.35"/><circle cx="885" cy="684" r="8" fill="#D4A017" opacity="0.26"/><circle cx="365" cy="301" r="4" fill="#D4A017" opacity="0.24"/><circle cx="80" cy="392" r="4" fill="#D4A017" opacity="0.30"/><circle cx="848" cy="657" r="3" fill="#D4A017" opacity="0.35"/><circle cx="1062" cy="856" r="7" fill="#D4A017" opacity="0.25"/></g>
  <path d="M0 702 Q 420 594 840 666 T 1400 630 L 1400 900 L 0 900 Z" fill="#0E0E0E" opacity="0.22"/>
  <text x="700" y="450" text-anchor="middle" font-family="Georgia, 'Playfair Display', serif" font-size="99" font-weight="700" fill="#FAF7F2" letter-spacing="-1">Detay</text>
  <text x="700" y="531" text-anchor="middle" font-family="Inter, system-ui, sans-serif" font-size="32" fill="#FAF7F2" opacity="0.7" letter-spacing="3">ZANAAT</text>
</svg>