<svg xmlns="http://www.w3.org/2000/svg" width="1400" height="900" viewBox="0 0 1400 900" role="img" aria-label="Detay">
  <defs>
    <linearGradient id="bg" x1="0" y1="0" x2="1" y2="1">
      <stop offset="0" stop-color="#0D4525"/>
      <stop offset="1" stop-color="#0E0E0E"/>
    </linearGradient>
    <radialGradient id="glow" cx="0.22" cy="0.2" r="0.9">
      <stop offset="0" stop-color="#D4A017" stop-opacity="0.35"/>
      <stop offset="0.55" stop-color="#D4A017" stop-opacity="0"/>
    </radialGradient>
  </defs>
  <rect width="1400" height="900" fill="url(#bg)"/>
  <rect width="1400" height="900" fill="url(#glow)"/>
  <g><circle cx="2" cy="514" r="6" fill="#FAF7F2" opacity="0.14"/><circle cx="867" cy="207" r="5" fill="#FAF7F2" opacity="0.09"/><circle cx="305" cy="727" r="5" fill="#FAF7F2" opacity="0.17"/><circle cx="1197" cy="885" r="7" fill="#FAF7F2" opacity="0.18"/><circle cx="801" cy="500" r="5" fill="#FAF7F2" opacity="0.13"/><circle cx="465" cy="655" r="8" fill="#FAF7F2" opacity="0.17"/><circle cx="1296" cy="396" r="5" fill="#FAF7F2" opacity="0.08"/><circle cx="45" cy="576" r="7" fill="#FAF7F2" opacity="0.18"/><circle cx="22" cy="529" r="6" fill="#FAF7F2" opacity="0.10"/><circle cx="1110" cy="715" r="3" fill="#FAF7F2" opacity="0.16"/><circle cx="1263" cy="428" r="8" fill="#FAF7F2" opacity="0.09"/><circle cx="849" cy="614" r="6" fill="#FAF7F2" opacity="0.15"/><circle cx="122" cy="140" r="7" fill="#FAF7F2" opacity="0.13"/><circle cx="43" cy="478" r="5" fill="#FAF7F2" opacity="0.14"/><circle cx="387" cy="294" r="6" fill="#FAF7F2" opacity="0.10"/><circle cx="1036" cy="822" r="4" fill="#FAF7F2" opacity="0.12"/><circle cx="422" cy="705" r="7" fill="#FAF7F2" opacity="0.11"/><circle cx="628" cy="808" r="3" fill="#FAF7F2" opacity="0.14"/><circle cx="1359" cy="532" r="2" fill="#FAF7F2" opacity="0.16"/><circle cx="109" cy="105" r="7" fill="#FAF7F2" opacity="0.13"/><circle cx="307" cy="291" r="3" fill="#FAF7F2" opacity="0.08"/><circle cx="540" cy="151" r="6" fill="#FAF7F2" opacity="0.13"/><circle cx="1247" cy="442" r="3" fill="#FAF7F2" opacity="0.17"/><circle cx="1267" cy="613" r="4" fill="#FAF7F2" opacity="0.17"/><circle cx="336" cy="887" r="4" fill="#FAF7F2" opacity="0.17"/><circle cx="750" cy="467" r="2" fill="#FAF7F2" opacity="0.07"/></g>
  <g><circle cx="3" cy="534" r="5" fill="#D4A017" opacity="0.22"/><circle cx="508" cy="816" r="3" fill="#D4A017" opacity="0.30"/><circle cx="656" cy="308" r="5" fill="#D4A017" opacity="0.30"/><circle cx="169" cy="366" r="3" fill="#D4A017" opacity="0.33"/><circle cx="22" cy="285" r="4" fill="#D4A017" opacity="0.24"/><circle cx="929" cy="647" r="4" fill="#D4A017" opacity="0.22"/><circle cx="975" cy="545" r="6" fill="#D4A017" opacity="0.45"/><circle cx="302" cy="53" r="2" fill="#D4A017" opacity="0.33"/><circle cx="1398" cy="258" r="5" fill="#D4A017" opacity="0.44"/><circle cx="594" cy="612" r="4" fill="#D4A017" opacity="0.49"/><circle cx="502" cy="673" r="5" fill="#D4A017" opacity="0.43"/><circle cx="150" cy="791" r="3" fill="#D4A017" opacity="0.29"/></g>
  <path d="M0 702 Q 420 594 840 666 T 1400 630 L 1400 900 L 0 900 Z" fill="#0E0E0E" opacity="0.22"/>
  <text x="700" y="450" text-anchor="middle" font-family="Georgia, 'Playfair Display', serif" font-size="99" font-weight="700" fill="#FAF7F2" letter-spacing="-1">Detay</text>
  <text x="700" y="531" text-anchor="middle" font-family="Inter, system-ui, sans-serif" font-size="32" fill="#FAF7F2" opacity="0.7" letter-spacing="3">ZANAAT</text>
</svg>