<svg xmlns="http://www.w3.org/2000/svg" width="1400" height="900" viewBox="0 0 1400 900" role="img" aria-label="Detay">
  <defs>
    <linearGradient id="bg" x1="0" y1="0" x2="1" y2="1">
      <stop offset="0" stop-color="#0D4525"/>
      <stop offset="1" stop-color="#0E0E0E"/>
    </linearGradient>
    <radialGradient id="glow" cx="0.22" cy="0.2" r="0.9">
      <stop offset="0" stop-color="#D4A017" stop-opacity="0.35"/>
      <stop offset="0.55" stop-color="#D4A017" stop-opacity="0"/>
    </radialGradient>
  </defs>
  <rect width="1400" height="900" fill="url(#bg)"/>
  <rect width="1400" height="900" fill="url(#glow)"/>
  <g><circle cx="2" cy="750" r="3" fill="#FAF7F2" opacity="0.13"/><circle cx="958" cy="601" r="6" fill="#FAF7F2" opacity="0.12"/><circle cx="807" cy="610" r="3" fill="#FAF7F2" opacity="0.18"/><circle cx="724" cy="47" r="7" fill="#FAF7F2" opacity="0.08"/><circle cx="1280" cy="513" r="3" fill="#FAF7F2" opacity="0.14"/><circle cx="234" cy="91" r="3" fill="#FAF7F2" opacity="0.16"/><circle cx="865" cy="444" r="7" fill="#FAF7F2" opacity="0.12"/><circle cx="1209" cy="39" r="6" fill="#FAF7F2" opacity="0.12"/><circle cx="757" cy="614" r="3" fill="#FAF7F2" opacity="0.18"/><circle cx="82" cy="277" r="3" fill="#FAF7F2" opacity="0.13"/><circle cx="554" cy="396" r="5" fill="#FAF7F2" opacity="0.15"/><circle cx="1274" cy="745" r="7" fill="#FAF7F2" opacity="0.12"/><circle cx="886" cy="25" r="4" fill="#FAF7F2" opacity="0.12"/><circle cx="708" cy="73" r="4" fill="#FAF7F2" opacity="0.18"/><circle cx="349" cy="110" r="5" fill="#FAF7F2" opacity="0.11"/><circle cx="769" cy="830" r="4" fill="#FAF7F2" opacity="0.08"/><circle cx="385" cy="694" r="4" fill="#FAF7F2" opacity="0.13"/><circle cx="481" cy="40" r="3" fill="#FAF7F2" opacity="0.11"/><circle cx="735" cy="377" r="2" fill="#FAF7F2" opacity="0.15"/><circle cx="1344" cy="195" r="4" fill="#FAF7F2" opacity="0.09"/><circle cx="1225" cy="517" r="3" fill="#FAF7F2" opacity="0.12"/><circle cx="171" cy="384" r="3" fill="#FAF7F2" opacity="0.18"/><circle cx="1245" cy="242" r="5" fill="#FAF7F2" opacity="0.12"/><circle cx="850" cy="637" r="6" fill="#FAF7F2" opacity="0.13"/><circle cx="90" cy="601" r="8" fill="#FAF7F2" opacity="0.15"/><circle cx="854" cy="410" r="6" fill="#FAF7F2" opacity="0.11"/></g>
  <g><circle cx="3" cy="770" r="8" fill="#D4A017" opacity="0.49"/><circle cx="600" cy="310" r="4" fill="#D4A017" opacity="0.41"/><circle cx="1158" cy="191" r="3" fill="#D4A017" opacity="0.31"/><circle cx="1095" cy="428" r="3" fill="#D4A017" opacity="0.35"/><circle cx="502" cy="299" r="3" fill="#D4A017" opacity="0.28"/><circle cx="698" cy="83" r="5" fill="#D4A017" opacity="0.48"/><circle cx="544" cy="593" r="7" fill="#D4A017" opacity="0.24"/><circle cx="67" cy="415" r="7" fill="#D4A017" opacity="0.48"/><circle cx="733" cy="344" r="2" fill="#D4A017" opacity="0.34"/><circle cx="965" cy="173" r="4" fill="#D4A017" opacity="0.41"/><circle cx="1194" cy="641" r="8" fill="#D4A017" opacity="0.28"/><circle cx="574" cy="21" r="4" fill="#D4A017" opacity="0.22"/></g>
  <path d="M0 702 Q 420 594 840 666 T 1400 630 L 1400 900 L 0 900 Z" fill="#0E0E0E" opacity="0.22"/>
  <text x="700" y="450" text-anchor="middle" font-family="Georgia, 'Playfair Display', serif" font-size="99" font-weight="700" fill="#FAF7F2" letter-spacing="-1">Detay</text>
  <text x="700" y="531" text-anchor="middle" font-family="Inter, system-ui, sans-serif" font-size="32" fill="#FAF7F2" opacity="0.7" letter-spacing="3">ZANAAT</text>
</svg>