<svg xmlns="http://www.w3.org/2000/svg" width="1200" height="1200" viewBox="0 0 1200 1200" role="img" aria-label="Salça">
  <defs>
    <linearGradient id="bg" x1="0" y1="0" x2="1" y2="1">
      <stop offset="0" stop-color="#3a1410"/>
      <stop offset="1" stop-color="#0E0E0E"/>
    </linearGradient>
    <radialGradient id="glow" cx="0.22" cy="0.2" r="0.9">
      <stop offset="0" stop-color="#C0392B" stop-opacity="0.35"/>
      <stop offset="0.55" stop-color="#C0392B" stop-opacity="0"/>
    </radialGradient>
  </defs>
  <rect width="1200" height="1200" fill="url(#bg)"/>
  <rect width="1200" height="1200" fill="url(#glow)"/>
  <g><circle cx="1" cy="405" r="4" fill="#FAF7F2" opacity="0.18"/><circle cx="86" cy="1040" r="3" fill="#FAF7F2" opacity="0.18"/><circle cx="52" cy="1058" r="7" fill="#FAF7F2" opacity="0.14"/><circle cx="690" cy="922" r="7" fill="#FAF7F2" opacity="0.15"/><circle cx="186" cy="1007" r="7" fill="#FAF7F2" opacity="0.10"/><circle cx="607" cy="1030" r="3" fill="#FAF7F2" opacity="0.12"/><circle cx="279" cy="522" r="2" fill="#FAF7F2" opacity="0.10"/><circle cx="413" cy="516" r="3" fill="#FAF7F2" opacity="0.08"/><circle cx="729" cy="208" r="3" fill="#FAF7F2" opacity="0.16"/><circle cx="1149" cy="538" r="2" fill="#FAF7F2" opacity="0.16"/><circle cx="1113" cy="118" r="7" fill="#FAF7F2" opacity="0.08"/><circle cx="19" cy="1107" r="7" fill="#FAF7F2" opacity="0.12"/><circle cx="870" cy="683" r="5" fill="#FAF7F2" opacity="0.08"/><circle cx="1101" cy="1158" r="3" fill="#FAF7F2" opacity="0.09"/><circle cx="36" cy="1013" r="3" fill="#FAF7F2" opacity="0.14"/><circle cx="729" cy="1192" r="4" fill="#FAF7F2" opacity="0.16"/><circle cx="653" cy="1012" r="2" fill="#FAF7F2" opacity="0.17"/><circle cx="368" cy="46" r="5" fill="#FAF7F2" opacity="0.17"/><circle cx="242" cy="727" r="6" fill="#FAF7F2" opacity="0.14"/><circle cx="680" cy="551" r="2" fill="#FAF7F2" opacity="0.17"/><circle cx="279" cy="798" r="6" fill="#FAF7F2" opacity="0.08"/><circle cx="767" cy="744" r="3" fill="#FAF7F2" opacity="0.08"/><circle cx="1129" cy="1025" r="5" fill="#FAF7F2" opacity="0.11"/><circle cx="313" cy="1136" r="5" fill="#FAF7F2" opacity="0.09"/><circle cx="1100" cy="870" r="4" fill="#FAF7F2" opacity="0.10"/><circle cx="679" cy="4" r="4" fill="#FAF7F2" opacity="0.12"/></g>
  <g><circle cx="2" cy="432" r="3" fill="#C0392B" opacity="0.32"/><circle cx="979" cy="652" r="7" fill="#C0392B" opacity="0.26"/><circle cx="352" cy="499" r="7" fill="#C0392B" opacity="0.21"/><circle cx="1009" cy="229" r="3" fill="#C0392B" opacity="0.25"/><circle cx="719" cy="721" r="7" fill="#C0392B" opacity="0.47"/><circle cx="1004" cy="1018" r="5" fill="#C0392B" opacity="0.36"/><circle cx="3" cy="721" r="3" fill="#C0392B" opacity="0.20"/><circle cx="633" cy="1017" r="4" fill="#C0392B" opacity="0.36"/><circle cx="708" cy="1047" r="3" fill="#C0392B" opacity="0.28"/><circle cx="707" cy="400" r="3" fill="#C0392B" opacity="0.50"/><circle cx="461" cy="445" r="4" fill="#C0392B" opacity="0.41"/><circle cx="619" cy="142" r="4" fill="#C0392B" opacity="0.21"/></g>
  <path d="M0 936 Q 360 792 720 888 T 1200 840 L 1200 1200 L 0 1200 Z" fill="#0E0E0E" opacity="0.22"/>
  <text x="600" y="600" text-anchor="middle" font-family="Georgia, 'Playfair Display', serif" font-size="132" font-weight="700" fill="#FAF7F2" letter-spacing="-1">Salça</text>
  <text x="600" y="708" text-anchor="middle" font-family="Inter, system-ui, sans-serif" font-size="42" fill="#FAF7F2" opacity="0.7" letter-spacing="3">EREN TARIM</text>
</svg>