<svg xmlns="http://www.w3.org/2000/svg" width="1200" height="1200" viewBox="0 0 1200 1200" role="img" aria-label="Toz Biber">
  <defs>
    <linearGradient id="bg" x1="0" y1="0" x2="1" y2="1">
      <stop offset="0" stop-color="#3a1410"/>
      <stop offset="1" stop-color="#0E0E0E"/>
    </linearGradient>
    <radialGradient id="glow" cx="0.22" cy="0.2" r="0.9">
      <stop offset="0" stop-color="#C0392B" stop-opacity="0.35"/>
      <stop offset="0.55" stop-color="#C0392B" stop-opacity="0"/>
    </radialGradient>
  </defs>
  <rect width="1200" height="1200" fill="url(#bg)"/>
  <rect width="1200" height="1200" fill="url(#glow)"/>
  <g><circle cx="1" cy="658" r="7" fill="#FAF7F2" opacity="0.10"/><circle cx="1050" cy="663" r="7" fill="#FAF7F2" opacity="0.17"/><circle cx="1161" cy="328" r="5" fill="#FAF7F2" opacity="0.13"/><circle cx="707" cy="673" r="5" fill="#FAF7F2" opacity="0.13"/><circle cx="154" cy="951" r="5" fill="#FAF7F2" opacity="0.17"/><circle cx="1" cy="885" r="6" fill="#FAF7F2" opacity="0.16"/><circle cx="186" cy="328" r="5" fill="#FAF7F2" opacity="0.11"/><circle cx="1018" cy="267" r="7" fill="#FAF7F2" opacity="0.13"/><circle cx="39" cy="1067" r="7" fill="#FAF7F2" opacity="0.16"/><circle cx="194" cy="1092" r="2" fill="#FAF7F2" opacity="0.14"/><circle cx="534" cy="243" r="5" fill="#FAF7F2" opacity="0.14"/><circle cx="128" cy="584" r="2" fill="#FAF7F2" opacity="0.09"/><circle cx="107" cy="1140" r="8" fill="#FAF7F2" opacity="0.09"/><circle cx="589" cy="378" r="2" fill="#FAF7F2" opacity="0.09"/><circle cx="134" cy="550" r="6" fill="#FAF7F2" opacity="0.10"/><circle cx="215" cy="1159" r="3" fill="#FAF7F2" opacity="0.16"/><circle cx="749" cy="1056" r="4" fill="#FAF7F2" opacity="0.11"/><circle cx="744" cy="715" r="5" fill="#FAF7F2" opacity="0.13"/><circle cx="647" cy="148" r="5" fill="#FAF7F2" opacity="0.16"/><circle cx="1105" cy="190" r="5" fill="#FAF7F2" opacity="0.11"/><circle cx="318" cy="1095" r="6" fill="#FAF7F2" opacity="0.17"/><circle cx="515" cy="1012" r="7" fill="#FAF7F2" opacity="0.15"/><circle cx="1133" cy="628" r="2" fill="#FAF7F2" opacity="0.13"/><circle cx="185" cy="1041" r="7" fill="#FAF7F2" opacity="0.09"/><circle cx="533" cy="811" r="6" fill="#FAF7F2" opacity="0.16"/><circle cx="411" cy="235" r="5" fill="#FAF7F2" opacity="0.11"/></g>
  <g><circle cx="2" cy="685" r="6" fill="#C0392B" opacity="0.39"/><circle cx="743" cy="276" r="5" fill="#C0392B" opacity="0.24"/><circle cx="261" cy="970" r="5" fill="#C0392B" opacity="0.48"/><circle cx="1026" cy="1180" r="7" fill="#C0392B" opacity="0.50"/><circle cx="687" cy="666" r="5" fill="#C0392B" opacity="0.35"/><circle cx="399" cy="874" r="8" fill="#C0392B" opacity="0.48"/><circle cx="1111" cy="528" r="5" fill="#C0392B" opacity="0.23"/><circle cx="38" cy="769" r="7" fill="#C0392B" opacity="0.49"/><circle cx="19" cy="705" r="6" fill="#C0392B" opacity="0.29"/><circle cx="952" cy="954" r="3" fill="#C0392B" opacity="0.44"/><circle cx="1082" cy="570" r="8" fill="#C0392B" opacity="0.25"/><circle cx="728" cy="819" r="6" fill="#C0392B" opacity="0.41"/></g>
  <path d="M0 936 Q 360 792 720 888 T 1200 840 L 1200 1200 L 0 1200 Z" fill="#0E0E0E" opacity="0.22"/>
  <text x="600" y="600" text-anchor="middle" font-family="Georgia, 'Playfair Display', serif" font-size="132" font-weight="700" fill="#FAF7F2" letter-spacing="-1">Toz Biber</text>
  <text x="600" y="708" text-anchor="middle" font-family="Inter, system-ui, sans-serif" font-size="42" fill="#FAF7F2" opacity="0.7" letter-spacing="3">EREN TARIM</text>
</svg>