<svg xmlns="http://www.w3.org/2000/svg" width="1200" height="1200" viewBox="0 0 1200 1200" role="img" aria-label="Pul Biber">
  <defs>
    <linearGradient id="bg" x1="0" y1="0" x2="1" y2="1">
      <stop offset="0" stop-color="#3a1410"/>
      <stop offset="1" stop-color="#0E0E0E"/>
    </linearGradient>
    <radialGradient id="glow" cx="0.22" cy="0.2" r="0.9">
      <stop offset="0" stop-color="#C0392B" stop-opacity="0.35"/>
      <stop offset="0.55" stop-color="#C0392B" stop-opacity="0"/>
    </radialGradient>
  </defs>
  <rect width="1200" height="1200" fill="url(#bg)"/>
  <rect width="1200" height="1200" fill="url(#glow)"/>
  <g><circle cx="1" cy="1132" r="3" fill="#FAF7F2" opacity="0.14"/><circle cx="568" cy="252" r="8" fill="#FAF7F2" opacity="0.18"/><circle cx="7" cy="93" r="6" fill="#FAF7F2" opacity="0.08"/><circle cx="99" cy="798" r="6" fill="#FAF7F2" opacity="0.09"/><circle cx="170" cy="979" r="6" fill="#FAF7F2" opacity="0.08"/><circle cx="304" cy="957" r="5" fill="#FAF7F2" opacity="0.14"/><circle cx="832" cy="1025" r="6" fill="#FAF7F2" opacity="0.11"/><circle cx="115" cy="391" r="5" fill="#FAF7F2" opacity="0.16"/><circle cx="984" cy="37" r="2" fill="#FAF7F2" opacity="0.16"/><circle cx="72" cy="215" r="2" fill="#FAF7F2" opacity="0.15"/><circle cx="223" cy="180" r="6" fill="#FAF7F2" opacity="0.16"/><circle cx="73" cy="846" r="8" fill="#FAF7F2" opacity="0.16"/><circle cx="1089" cy="312" r="3" fill="#FAF7F2" opacity="0.14"/><circle cx="245" cy="168" r="2" fill="#FAF7F2" opacity="0.14"/><circle cx="685" cy="182" r="4" fill="#FAF7F2" opacity="0.12"/><circle cx="1072" cy="575" r="6" fill="#FAF7F2" opacity="0.16"/><circle cx="701" cy="434" r="3" fill="#FAF7F2" opacity="0.14"/><circle cx="556" cy="981" r="2" fill="#FAF7F2" opacity="0.15"/><circle cx="445" cy="1038" r="3" fill="#FAF7F2" opacity="0.10"/><circle cx="893" cy="371" r="6" fill="#FAF7F2" opacity="0.14"/><circle cx="898" cy="346" r="6" fill="#FAF7F2" opacity="0.18"/><circle cx="41" cy="878" r="2" fill="#FAF7F2" opacity="0.17"/><circle cx="1131" cy="226" r="6" fill="#FAF7F2" opacity="0.12"/><circle cx="249" cy="488" r="6" fill="#FAF7F2" opacity="0.14"/><circle cx="817" cy="240" r="5" fill="#FAF7F2" opacity="0.08"/><circle cx="1145" cy="719" r="5" fill="#FAF7F2" opacity="0.17"/></g>
  <g><circle cx="2" cy="1158" r="7" fill="#C0392B" opacity="0.21"/><circle cx="261" cy="1064" r="6" fill="#C0392B" opacity="0.25"/><circle cx="307" cy="734" r="6" fill="#C0392B" opacity="0.34"/><circle cx="417" cy="105" r="8" fill="#C0392B" opacity="0.38"/><circle cx="703" cy="694" r="6" fill="#C0392B" opacity="0.41"/><circle cx="702" cy="946" r="6" fill="#C0392B" opacity="0.42"/><circle cx="557" cy="24" r="7" fill="#C0392B" opacity="0.22"/><circle cx="336" cy="893" r="6" fill="#C0392B" opacity="0.28"/><circle cx="963" cy="876" r="7" fill="#C0392B" opacity="0.29"/><circle cx="829" cy="77" r="3" fill="#C0392B" opacity="0.47"/><circle cx="772" cy="507" r="3" fill="#C0392B" opacity="0.33"/><circle cx="674" cy="1081" r="5" fill="#C0392B" opacity="0.31"/></g>
  <path d="M0 936 Q 360 792 720 888 T 1200 840 L 1200 1200 L 0 1200 Z" fill="#0E0E0E" opacity="0.22"/>
  <text x="600" y="600" text-anchor="middle" font-family="Georgia, 'Playfair Display', serif" font-size="132" font-weight="700" fill="#FAF7F2" letter-spacing="-1">Pul Biber</text>
  <text x="600" y="708" text-anchor="middle" font-family="Inter, system-ui, sans-serif" font-size="42" fill="#FAF7F2" opacity="0.7" letter-spacing="3">EREN TARIM</text>
</svg>