<svg xmlns="http://www.w3.org/2000/svg" width="1200" height="1200" viewBox="0 0 1200 1200" role="img" aria-label="Arpa Unu">
  <defs>
    <linearGradient id="bg" x1="0" y1="0" x2="1" y2="1">
      <stop offset="0" stop-color="#8B4513"/>
      <stop offset="1" stop-color="#3a2208"/>
    </linearGradient>
    <radialGradient id="glow" cx="0.22" cy="0.2" r="0.9">
      <stop offset="0" stop-color="#D4A017" stop-opacity="0.35"/>
      <stop offset="0.55" stop-color="#D4A017" stop-opacity="0"/>
    </radialGradient>
  </defs>
  <rect width="1200" height="1200" fill="url(#bg)"/>
  <rect width="1200" height="1200" fill="url(#glow)"/>
  <g><circle cx="1" cy="185" r="5" fill="#FAF7F2" opacity="0.17"/><circle cx="332" cy="1075" r="6" fill="#FAF7F2" opacity="0.17"/><circle cx="1116" cy="563" r="4" fill="#FAF7F2" opacity="0.17"/><circle cx="116" cy="549" r="4" fill="#FAF7F2" opacity="0.18"/><circle cx="138" cy="924" r="4" fill="#FAF7F2" opacity="0.15"/><circle cx="898" cy="813" r="7" fill="#FAF7F2" opacity="0.08"/><circle cx="740" cy="831" r="3" fill="#FAF7F2" opacity="0.11"/><circle cx="720" cy="143" r="2" fill="#FAF7F2" opacity="0.10"/><circle cx="294" cy="896" r="6" fill="#FAF7F2" opacity="0.16"/><circle cx="317" cy="769" r="3" fill="#FAF7F2" opacity="0.13"/><circle cx="845" cy="306" r="4" fill="#FAF7F2" opacity="0.11"/><circle cx="182" cy="322" r="3" fill="#FAF7F2" opacity="0.12"/><circle cx="325" cy="769" r="6" fill="#FAF7F2" opacity="0.16"/><circle cx="933" cy="589" r="8" fill="#FAF7F2" opacity="0.14"/><circle cx="782" cy="919" r="8" fill="#FAF7F2" opacity="0.08"/><circle cx="558" cy="543" r="6" fill="#FAF7F2" opacity="0.17"/><circle cx="797" cy="477" r="6" fill="#FAF7F2" opacity="0.08"/><circle cx="932" cy="450" r="2" fill="#FAF7F2" opacity="0.12"/><circle cx="850" cy="458" r="8" fill="#FAF7F2" opacity="0.12"/><circle cx="118" cy="10" r="3" fill="#FAF7F2" opacity="0.07"/><circle cx="938" cy="644" r="6" fill="#FAF7F2" opacity="0.16"/><circle cx="990" cy="1145" r="6" fill="#FAF7F2" opacity="0.13"/><circle cx="1135" cy="1029" r="4" fill="#FAF7F2" opacity="0.14"/><circle cx="122" cy="393" r="3" fill="#FAF7F2" opacity="0.14"/><circle cx="250" cy="181" r="8" fill="#FAF7F2" opacity="0.13"/><circle cx="876" cy="950" r="6" fill="#FAF7F2" opacity="0.16"/></g>
  <g><circle cx="2" cy="211" r="4" fill="#D4A017" opacity="0.28"/><circle cx="25" cy="687" r="4" fill="#D4A017" opacity="0.23"/><circle cx="216" cy="5" r="4" fill="#D4A017" opacity="0.31"/><circle cx="435" cy="1056" r="6" fill="#D4A017" opacity="0.32"/><circle cx="670" cy="638" r="4" fill="#D4A017" opacity="0.29"/><circle cx="96" cy="801" r="3" fill="#D4A017" opacity="0.25"/><circle cx="465" cy="1031" r="4" fill="#D4A017" opacity="0.24"/><circle cx="941" cy="644" r="3" fill="#D4A017" opacity="0.40"/><circle cx="274" cy="535" r="5" fill="#D4A017" opacity="0.30"/><circle cx="1074" cy="631" r="3" fill="#D4A017" opacity="0.41"/><circle cx="193" cy="633" r="7" fill="#D4A017" opacity="0.48"/><circle cx="783" cy="557" r="6" fill="#D4A017" opacity="0.22"/></g>
  <path d="M0 936 Q 360 792 720 888 T 1200 840 L 1200 1200 L 0 1200 Z" fill="#0E0E0E" opacity="0.22"/>
  <text x="600" y="600" text-anchor="middle" font-family="Georgia, 'Playfair Display', serif" font-size="132" font-weight="700" fill="#FAF7F2" letter-spacing="-1">Arpa Unu</text>
  <text x="600" y="708" text-anchor="middle" font-family="Inter, system-ui, sans-serif" font-size="42" fill="#FAF7F2" opacity="0.7" letter-spacing="3">EREN TARIM</text>
</svg>