<svg xmlns="http://www.w3.org/2000/svg" width="1200" height="1200" viewBox="0 0 1200 1200" role="img" aria-label="Buğday Unu">
  <defs>
    <linearGradient id="bg" x1="0" y1="0" x2="1" y2="1">
      <stop offset="0" stop-color="#8B4513"/>
      <stop offset="1" stop-color="#3a2208"/>
    </linearGradient>
    <radialGradient id="glow" cx="0.22" cy="0.2" r="0.9">
      <stop offset="0" stop-color="#D4A017" stop-opacity="0.35"/>
      <stop offset="0.55" stop-color="#D4A017" stop-opacity="0"/>
    </radialGradient>
  </defs>
  <rect width="1200" height="1200" fill="url(#bg)"/>
  <rect width="1200" height="1200" fill="url(#glow)"/>
  <g><circle cx="1" cy="437" r="2" fill="#FAF7F2" opacity="0.08"/><circle cx="96" cy="699" r="5" fill="#FAF7F2" opacity="0.16"/><circle cx="1025" cy="1033" r="2" fill="#FAF7F2" opacity="0.16"/><circle cx="133" cy="300" r="2" fill="#FAF7F2" opacity="0.16"/><circle cx="106" cy="868" r="2" fill="#FAF7F2" opacity="0.10"/><circle cx="292" cy="668" r="4" fill="#FAF7F2" opacity="0.12"/><circle cx="648" cy="638" r="6" fill="#FAF7F2" opacity="0.12"/><circle cx="125" cy="1094" r="5" fill="#FAF7F2" opacity="0.14"/><circle cx="805" cy="554" r="3" fill="#FAF7F2" opacity="0.16"/><circle cx="562" cy="123" r="3" fill="#FAF7F2" opacity="0.11"/><circle cx="266" cy="432" r="8" fill="#FAF7F2" opacity="0.16"/><circle cx="291" cy="999" r="4" fill="#FAF7F2" opacity="0.09"/><circle cx="762" cy="27" r="2" fill="#FAF7F2" opacity="0.17"/><circle cx="421" cy="1009" r="7" fill="#FAF7F2" opacity="0.14"/><circle cx="879" cy="456" r="5" fill="#FAF7F2" opacity="0.15"/><circle cx="45" cy="510" r="5" fill="#FAF7F2" opacity="0.18"/><circle cx="893" cy="521" r="2" fill="#FAF7F2" opacity="0.13"/><circle cx="108" cy="1119" r="2" fill="#FAF7F2" opacity="0.08"/><circle cx="55" cy="1079" r="7" fill="#FAF7F2" opacity="0.14"/><circle cx="543" cy="849" r="5" fill="#FAF7F2" opacity="0.12"/><circle cx="978" cy="941" r="5" fill="#FAF7F2" opacity="0.15"/><circle cx="738" cy="212" r="3" fill="#FAF7F2" opacity="0.09"/><circle cx="1139" cy="631" r="8" fill="#FAF7F2" opacity="0.16"/><circle cx="1195" cy="297" r="5" fill="#FAF7F2" opacity="0.13"/><circle cx="883" cy="122" r="4" fill="#FAF7F2" opacity="0.08"/><circle cx="608" cy="1181" r="8" fill="#FAF7F2" opacity="0.15"/></g>
  <g><circle cx="2" cy="464" r="7" fill="#D4A017" opacity="0.36"/><circle cx="989" cy="311" r="2" fill="#D4A017" opacity="0.21"/><circle cx="125" cy="475" r="2" fill="#D4A017" opacity="0.27"/><circle cx="452" cy="807" r="4" fill="#D4A017" opacity="0.27"/><circle cx="638" cy="583" r="8" fill="#D4A017" opacity="0.47"/><circle cx="690" cy="657" r="6" fill="#D4A017" opacity="0.37"/><circle cx="372" cy="837" r="6" fill="#D4A017" opacity="0.26"/><circle cx="345" cy="396" r="6" fill="#D4A017" opacity="0.23"/><circle cx="784" cy="193" r="2" fill="#D4A017" opacity="0.30"/><circle cx="119" cy="1185" r="4" fill="#D4A017" opacity="0.35"/><circle cx="814" cy="759" r="5" fill="#D4A017" opacity="0.32"/><circle cx="892" cy="34" r="7" fill="#D4A017" opacity="0.42"/></g>
  <path d="M0 936 Q 360 792 720 888 T 1200 840 L 1200 1200 L 0 1200 Z" fill="#0E0E0E" opacity="0.22"/>
  <text x="600" y="600" text-anchor="middle" font-family="Georgia, 'Playfair Display', serif" font-size="132" font-weight="700" fill="#FAF7F2" letter-spacing="-1">Buğday Unu</text>
  <text x="600" y="708" text-anchor="middle" font-family="Inter, system-ui, sans-serif" font-size="42" fill="#FAF7F2" opacity="0.7" letter-spacing="3">EREN TARIM</text>
</svg>