<svg xmlns="http://www.w3.org/2000/svg" width="1200" height="1200" viewBox="0 0 1200 1200" role="img" aria-label="Mısır Unu">
  <defs>
    <linearGradient id="bg" x1="0" y1="0" x2="1" y2="1">
      <stop offset="0" stop-color="#8B4513"/>
      <stop offset="1" stop-color="#3a2208"/>
    </linearGradient>
    <radialGradient id="glow" cx="0.22" cy="0.2" r="0.9">
      <stop offset="0" stop-color="#D4A017" stop-opacity="0.35"/>
      <stop offset="0.55" stop-color="#D4A017" stop-opacity="0"/>
    </radialGradient>
  </defs>
  <rect width="1200" height="1200" fill="url(#bg)"/>
  <rect width="1200" height="1200" fill="url(#glow)"/>
  <g><circle cx="1" cy="911" r="4" fill="#FAF7F2" opacity="0.12"/><circle cx="814" cy="287" r="5" fill="#FAF7F2" opacity="0.16"/><circle cx="1070" cy="798" r="3" fill="#FAF7F2" opacity="0.11"/><circle cx="724" cy="424" r="3" fill="#FAF7F2" opacity="0.11"/><circle cx="122" cy="896" r="3" fill="#FAF7F2" opacity="0.12"/><circle cx="595" cy="740" r="3" fill="#FAF7F2" opacity="0.10"/><circle cx="94" cy="135" r="8" fill="#FAF7F2" opacity="0.12"/><circle cx="422" cy="19" r="4" fill="#FAF7F2" opacity="0.17"/><circle cx="550" cy="725" r="4" fill="#FAF7F2" opacity="0.16"/><circle cx="439" cy="446" r="3" fill="#FAF7F2" opacity="0.12"/><circle cx="1155" cy="369" r="3" fill="#FAF7F2" opacity="0.08"/><circle cx="237" cy="61" r="4" fill="#FAF7F2" opacity="0.16"/><circle cx="543" cy="398" r="4" fill="#FAF7F2" opacity="0.11"/><circle cx="77" cy="799" r="7" fill="#FAF7F2" opacity="0.09"/><circle cx="231" cy="87" r="3" fill="#FAF7F2" opacity="0.17"/><circle cx="902" cy="1126" r="2" fill="#FAF7F2" opacity="0.17"/><circle cx="845" cy="1099" r="7" fill="#FAF7F2" opacity="0.16"/><circle cx="1120" cy="184" r="5" fill="#FAF7F2" opacity="0.10"/><circle cx="1052" cy="768" r="4" fill="#FAF7F2" opacity="0.08"/><circle cx="330" cy="1030" r="7" fill="#FAF7F2" opacity="0.15"/><circle cx="358" cy="193" r="5" fill="#FAF7F2" opacity="0.16"/><circle cx="264" cy="79" r="4" fill="#FAF7F2" opacity="0.11"/><circle cx="1137" cy="230" r="6" fill="#FAF7F2" opacity="0.15"/><circle cx="58" cy="945" r="4" fill="#FAF7F2" opacity="0.08"/><circle cx="1166" cy="752" r="3" fill="#FAF7F2" opacity="0.10"/><circle cx="142" cy="466" r="7" fill="#FAF7F2" opacity="0.10"/></g>
  <g><circle cx="2" cy="938" r="3" fill="#D4A017" opacity="0.47"/><circle cx="507" cy="1099" r="3" fill="#D4A017" opacity="0.22"/><circle cx="171" cy="240" r="3" fill="#D4A017" opacity="0.44"/><circle cx="1043" cy="931" r="5" fill="#D4A017" opacity="0.45"/><circle cx="654" cy="611" r="3" fill="#D4A017" opacity="0.23"/><circle cx="993" cy="729" r="5" fill="#D4A017" opacity="0.31"/><circle cx="1018" cy="334" r="2" fill="#D4A017" opacity="0.25"/><circle cx="643" cy="520" r="5" fill="#D4A017" opacity="0.32"/><circle cx="529" cy="364" r="4" fill="#D4A017" opacity="0.30"/><circle cx="1197" cy="308" r="3" fill="#D4A017" opacity="0.38"/><circle cx="504" cy="696" r="6" fill="#D4A017" opacity="0.40"/><circle cx="837" cy="296" r="7" fill="#D4A017" opacity="0.32"/></g>
  <path d="M0 936 Q 360 792 720 888 T 1200 840 L 1200 1200 L 0 1200 Z" fill="#0E0E0E" opacity="0.22"/>
  <text x="600" y="600" text-anchor="middle" font-family="Georgia, 'Playfair Display', serif" font-size="132" font-weight="700" fill="#FAF7F2" letter-spacing="-1">Mısır Unu</text>
  <text x="600" y="708" text-anchor="middle" font-family="Inter, system-ui, sans-serif" font-size="42" fill="#FAF7F2" opacity="0.7" letter-spacing="3">EREN TARIM</text>
</svg>