<svg xmlns="http://www.w3.org/2000/svg" width="1200" height="1200" viewBox="0 0 1200 1200" role="img" aria-label="Buğday Silajı">
  <defs>
    <linearGradient id="bg" x1="0" y1="0" x2="1" y2="1">
      <stop offset="0" stop-color="#0D4525"/>
      <stop offset="1" stop-color="#062818"/>
    </linearGradient>
    <radialGradient id="glow" cx="0.22" cy="0.2" r="0.9">
      <stop offset="0" stop-color="#3D8B5E" stop-opacity="0.35"/>
      <stop offset="0.55" stop-color="#3D8B5E" stop-opacity="0"/>
    </radialGradient>
  </defs>
  <rect width="1200" height="1200" fill="url(#bg)"/>
  <rect width="1200" height="1200" fill="url(#glow)"/>
  <g><circle cx="1" cy="626" r="3" fill="#FAF7F2" opacity="0.09"/><circle cx="1040" cy="1005" r="5" fill="#FAF7F2" opacity="0.08"/><circle cx="188" cy="353" r="4" fill="#FAF7F2" opacity="0.10"/><circle cx="65" cy="95" r="4" fill="#FAF7F2" opacity="0.13"/><circle cx="235" cy="1090" r="3" fill="#FAF7F2" opacity="0.17"/><circle cx="316" cy="47" r="5" fill="#FAF7F2" opacity="0.16"/><circle cx="1017" cy="213" r="7" fill="#FAF7F2" opacity="0.09"/><circle cx="106" cy="889" r="5" fill="#FAF7F2" opacity="0.17"/><circle cx="1163" cy="721" r="7" fill="#FAF7F2" opacity="0.15"/><circle cx="782" cy="308" r="8" fill="#FAF7F2" opacity="0.08"/><circle cx="181" cy="1129" r="4" fill="#FAF7F2" opacity="0.17"/><circle cx="1055" cy="692" r="5" fill="#FAF7F2" opacity="0.11"/><circle cx="216" cy="596" r="5" fill="#FAF7F2" opacity="0.11"/><circle cx="69" cy="527" r="4" fill="#FAF7F2" opacity="0.14"/><circle cx="491" cy="1108" r="4" fill="#FAF7F2" opacity="0.09"/><circle cx="899" cy="640" r="8" fill="#FAF7F2" opacity="0.14"/><circle cx="509" cy="347" r="4" fill="#FAF7F2" opacity="0.15"/><circle cx="1003" cy="843" r="3" fill="#FAF7F2" opacity="0.11"/><circle cx="835" cy="997" r="5" fill="#FAF7F2" opacity="0.16"/><circle cx="43" cy="1092" r="7" fill="#FAF7F2" opacity="0.17"/><circle cx="819" cy="952" r="7" fill="#FAF7F2" opacity="0.10"/><circle cx="544" cy="343" r="7" fill="#FAF7F2" opacity="0.14"/><circle cx="1123" cy="1022" r="5" fill="#FAF7F2" opacity="0.09"/><circle cx="504" cy="680" r="7" fill="#FAF7F2" opacity="0.16"/><circle cx="751" cy="358" r="7" fill="#FAF7F2" opacity="0.07"/><circle cx="482" cy="257" r="7" fill="#FAF7F2" opacity="0.08"/></g>
  <g><circle cx="2" cy="652" r="8" fill="#3D8B5E" opacity="0.36"/><circle cx="733" cy="617" r="3" fill="#3D8B5E" opacity="0.29"/><circle cx="489" cy="994" r="3" fill="#3D8B5E" opacity="0.41"/><circle cx="383" cy="603" r="6" fill="#3D8B5E" opacity="0.48"/><circle cx="767" cy="805" r="3" fill="#3D8B5E" opacity="0.35"/><circle cx="713" cy="36" r="7" fill="#3D8B5E" opacity="0.47"/><circle cx="742" cy="412" r="8" fill="#3D8B5E" opacity="0.47"/><circle cx="326" cy="190" r="5" fill="#3D8B5E" opacity="0.32"/><circle cx="1143" cy="360" r="6" fill="#3D8B5E" opacity="0.27"/><circle cx="339" cy="169" r="2" fill="#3D8B5E" opacity="0.28"/><circle cx="729" cy="256" r="7" fill="#3D8B5E" opacity="0.34"/><circle cx="455" cy="927" r="2" fill="#3D8B5E" opacity="0.49"/></g>
  <path d="M0 936 Q 360 792 720 888 T 1200 840 L 1200 1200 L 0 1200 Z" fill="#0E0E0E" opacity="0.22"/>
  <text x="600" y="600" text-anchor="middle" font-family="Georgia, 'Playfair Display', serif" font-size="132" font-weight="700" fill="#FAF7F2" letter-spacing="-1">Buğday Silajı</text>
  <text x="600" y="708" text-anchor="middle" font-family="Inter, system-ui, sans-serif" font-size="42" fill="#FAF7F2" opacity="0.7" letter-spacing="3">EREN TARIM</text>
</svg>