<svg xmlns="http://www.w3.org/2000/svg" width="1200" height="1200" viewBox="0 0 1200 1200" role="img" aria-label="Mısır Silajı">
  <defs>
    <linearGradient id="bg" x1="0" y1="0" x2="1" y2="1">
      <stop offset="0" stop-color="#0D4525"/>
      <stop offset="1" stop-color="#062818"/>
    </linearGradient>
    <radialGradient id="glow" cx="0.22" cy="0.2" r="0.9">
      <stop offset="0" stop-color="#3D8B5E" stop-opacity="0.35"/>
      <stop offset="0.55" stop-color="#3D8B5E" stop-opacity="0"/>
    </radialGradient>
  </defs>
  <rect width="1200" height="1200" fill="url(#bg)"/>
  <rect width="1200" height="1200" fill="url(#glow)"/>
  <g><circle cx="1" cy="879" r="6" fill="#FAF7F2" opacity="0.11"/><circle cx="804" cy="628" r="4" fill="#FAF7F2" opacity="0.08"/><circle cx="97" cy="823" r="8" fill="#FAF7F2" opacity="0.09"/><circle cx="82" cy="1046" r="8" fill="#FAF7F2" opacity="0.11"/><circle cx="202" cy="1035" r="8" fill="#FAF7F2" opacity="0.12"/><circle cx="910" cy="1102" r="8" fill="#FAF7F2" opacity="0.09"/><circle cx="925" cy="19" r="4" fill="#FAF7F2" opacity="0.10"/><circle cx="710" cy="640" r="8" fill="#FAF7F2" opacity="0.11"/><circle cx="474" cy="379" r="5" fill="#FAF7F2" opacity="0.15"/><circle cx="1027" cy="862" r="8" fill="#FAF7F2" opacity="0.17"/><circle cx="802" cy="55" r="8" fill="#FAF7F2" opacity="0.11"/><circle cx="1164" cy="169" r="6" fill="#FAF7F2" opacity="0.08"/><circle cx="652" cy="1054" r="7" fill="#FAF7F2" opacity="0.13"/><circle cx="757" cy="947" r="3" fill="#FAF7F2" opacity="0.14"/><circle cx="588" cy="645" r="7" fill="#FAF7F2" opacity="0.16"/><circle cx="385" cy="608" r="7" fill="#FAF7F2" opacity="0.15"/><circle cx="605" cy="390" r="7" fill="#FAF7F2" opacity="0.09"/><circle cx="180" cy="312" r="2" fill="#FAF7F2" opacity="0.07"/><circle cx="40" cy="417" r="4" fill="#FAF7F2" opacity="0.07"/><circle cx="468" cy="731" r="4" fill="#FAF7F2" opacity="0.10"/><circle cx="859" cy="49" r="7" fill="#FAF7F2" opacity="0.08"/><circle cx="292" cy="611" r="5" fill="#FAF7F2" opacity="0.10"/><circle cx="1127" cy="624" r="3" fill="#FAF7F2" opacity="0.11"/><circle cx="376" cy="584" r="3" fill="#FAF7F2" opacity="0.15"/><circle cx="184" cy="299" r="3" fill="#FAF7F2" opacity="0.13"/><circle cx="214" cy="488" r="3" fill="#FAF7F2" opacity="0.18"/></g>
  <g><circle cx="2" cy="905" r="5" fill="#3D8B5E" opacity="0.43"/><circle cx="497" cy="240" r="8" fill="#3D8B5E" opacity="0.27"/><circle cx="398" cy="264" r="8" fill="#3D8B5E" opacity="0.38"/><circle cx="400" cy="354" r="4" fill="#3D8B5E" opacity="0.43"/><circle cx="735" cy="749" r="7" fill="#3D8B5E" opacity="0.23"/><circle cx="107" cy="1091" r="4" fill="#3D8B5E" opacity="0.30"/><circle cx="649" cy="218" r="4" fill="#3D8B5E" opacity="0.49"/><circle cx="931" cy="1141" r="2" fill="#3D8B5E" opacity="0.45"/><circle cx="453" cy="18" r="4" fill="#3D8B5E" opacity="0.28"/><circle cx="584" cy="723" r="3" fill="#3D8B5E" opacity="0.23"/><circle cx="150" cy="382" r="5" fill="#3D8B5E" opacity="0.49"/><circle cx="565" cy="404" r="4" fill="#3D8B5E" opacity="0.40"/></g>
  <path d="M0 936 Q 360 792 720 888 T 1200 840 L 1200 1200 L 0 1200 Z" fill="#0E0E0E" opacity="0.22"/>
  <text x="600" y="600" text-anchor="middle" font-family="Georgia, 'Playfair Display', serif" font-size="132" font-weight="700" fill="#FAF7F2" letter-spacing="-1">Mısır Silajı</text>
  <text x="600" y="708" text-anchor="middle" font-family="Inter, system-ui, sans-serif" font-size="42" fill="#FAF7F2" opacity="0.7" letter-spacing="3">EREN TARIM</text>
</svg>