<svg xmlns="http://www.w3.org/2000/svg" width="1200" height="1200" viewBox="0 0 1200 1200" role="img" aria-label="Yonca Silajı">
  <defs>
    <linearGradient id="bg" x1="0" y1="0" x2="1" y2="1">
      <stop offset="0" stop-color="#0D4525"/>
      <stop offset="1" stop-color="#062818"/>
    </linearGradient>
    <radialGradient id="glow" cx="0.22" cy="0.2" r="0.9">
      <stop offset="0" stop-color="#3D8B5E" stop-opacity="0.35"/>
      <stop offset="0.55" stop-color="#3D8B5E" stop-opacity="0"/>
    </radialGradient>
  </defs>
  <rect width="1200" height="1200" fill="url(#bg)"/>
  <rect width="1200" height="1200" fill="url(#glow)"/>
  <g><circle cx="1" cy="152" r="7" fill="#FAF7F2" opacity="0.15"/><circle cx="322" cy="216" r="4" fill="#FAF7F2" opacity="0.08"/><circle cx="143" cy="588" r="3" fill="#FAF7F2" opacity="0.15"/><circle cx="673" cy="1171" r="3" fill="#FAF7F2" opacity="0.17"/><circle cx="219" cy="1062" r="3" fill="#FAF7F2" opacity="0.15"/><circle cx="13" cy="1175" r="6" fill="#FAF7F2" opacity="0.07"/><circle cx="371" cy="716" r="5" fill="#FAF7F2" opacity="0.09"/><circle cx="1008" cy="764" r="6" fill="#FAF7F2" opacity="0.14"/><circle cx="219" cy="550" r="6" fill="#FAF7F2" opacity="0.15"/><circle cx="904" cy="1185" r="8" fill="#FAF7F2" opacity="0.07"/><circle cx="491" cy="1192" r="3" fill="#FAF7F2" opacity="0.14"/><circle cx="1110" cy="431" r="6" fill="#FAF7F2" opacity="0.15"/><circle cx="434" cy="225" r="3" fill="#FAF7F2" opacity="0.17"/><circle cx="413" cy="737" r="4" fill="#FAF7F2" opacity="0.09"/><circle cx="1139" cy="277" r="5" fill="#FAF7F2" opacity="0.18"/><circle cx="42" cy="24" r="4" fill="#FAF7F2" opacity="0.15"/><circle cx="557" cy="969" r="6" fill="#FAF7F2" opacity="0.12"/><circle cx="1191" cy="577" r="5" fill="#FAF7F2" opacity="0.09"/><circle cx="1037" cy="107" r="8" fill="#FAF7F2" opacity="0.12"/><circle cx="255" cy="912" r="5" fill="#FAF7F2" opacity="0.13"/><circle cx="239" cy="500" r="7" fill="#FAF7F2" opacity="0.09"/><circle cx="1018" cy="477" r="6" fill="#FAF7F2" opacity="0.12"/><circle cx="1125" cy="223" r="7" fill="#FAF7F2" opacity="0.10"/><circle cx="440" cy="32" r="8" fill="#FAF7F2" opacity="0.10"/><circle cx="467" cy="928" r="8" fill="#FAF7F2" opacity="0.16"/><circle cx="948" cy="973" r="2" fill="#FAF7F2" opacity="0.13"/></g>
  <g><circle cx="2" cy="179" r="6" fill="#3D8B5E" opacity="0.25"/><circle cx="15" cy="1029" r="2" fill="#3D8B5E" opacity="0.28"/><circle cx="443" cy="29" r="2" fill="#3D8B5E" opacity="0.25"/><circle cx="992" cy="478" r="5" fill="#3D8B5E" opacity="0.31"/><circle cx="751" cy="777" r="2" fill="#3D8B5E" opacity="0.29"/><circle cx="410" cy="1163" r="2" fill="#3D8B5E" opacity="0.23"/><circle cx="96" cy="915" r="6" fill="#3D8B5E" opacity="0.48"/><circle cx="29" cy="66" r="7" fill="#3D8B5E" opacity="0.23"/><circle cx="198" cy="189" r="5" fill="#3D8B5E" opacity="0.27"/><circle cx="462" cy="1046" r="2" fill="#3D8B5E" opacity="0.25"/><circle cx="1040" cy="319" r="6" fill="#3D8B5E" opacity="0.27"/><circle cx="510" cy="666" r="3" fill="#3D8B5E" opacity="0.30"/></g>
  <path d="M0 936 Q 360 792 720 888 T 1200 840 L 1200 1200 L 0 1200 Z" fill="#0E0E0E" opacity="0.22"/>
  <text x="600" y="600" text-anchor="middle" font-family="Georgia, 'Playfair Display', serif" font-size="132" font-weight="700" fill="#FAF7F2" letter-spacing="-1">Yonca Silajı</text>
  <text x="600" y="708" text-anchor="middle" font-family="Inter, system-ui, sans-serif" font-size="42" fill="#FAF7F2" opacity="0.7" letter-spacing="3">EREN TARIM</text>
</svg>