<svg xmlns="http://www.w3.org/2000/svg" width="1600" height="900" viewBox="0 0 1600 900" role="img" aria-label="Biber Tarihi">
  <defs>
    <linearGradient id="bg" x1="0" y1="0" x2="1" y2="1">
      <stop offset="0" stop-color="#3a1410"/>
      <stop offset="1" stop-color="#0E0E0E"/>
    </linearGradient>
    <radialGradient id="glow" cx="0.22" cy="0.2" r="0.9">
      <stop offset="0" stop-color="#C0392B" stop-opacity="0.35"/>
      <stop offset="0.55" stop-color="#C0392B" stop-opacity="0"/>
    </radialGradient>
  </defs>
  <rect width="1600" height="900" fill="url(#bg)"/>
  <rect width="1600" height="900" fill="url(#glow)"/>
  <g><circle cx="1" cy="638" r="5" fill="#FAF7F2" opacity="0.11"/><circle cx="274" cy="150" r="4" fill="#FAF7F2" opacity="0.14"/><circle cx="1031" cy="602" r="5" fill="#FAF7F2" opacity="0.12"/><circle cx="607" cy="687" r="6" fill="#FAF7F2" opacity="0.07"/><circle cx="366" cy="353" r="5" fill="#FAF7F2" opacity="0.12"/><circle cx="467" cy="23" r="2" fill="#FAF7F2" opacity="0.12"/><circle cx="247" cy="786" r="6" fill="#FAF7F2" opacity="0.11"/><circle cx="346" cy="685" r="5" fill="#FAF7F2" opacity="0.17"/><circle cx="616" cy="379" r="5" fill="#FAF7F2" opacity="0.15"/><circle cx="423" cy="519" r="5" fill="#FAF7F2" opacity="0.14"/><circle cx="958" cy="99" r="7" fill="#FAF7F2" opacity="0.12"/><circle cx="364" cy="636" r="3" fill="#FAF7F2" opacity="0.08"/><circle cx="1453" cy="231" r="3" fill="#FAF7F2" opacity="0.11"/><circle cx="202" cy="18" r="4" fill="#FAF7F2" opacity="0.13"/><circle cx="1300" cy="702" r="4" fill="#FAF7F2" opacity="0.08"/><circle cx="220" cy="658" r="4" fill="#FAF7F2" opacity="0.10"/><circle cx="510" cy="174" r="5" fill="#FAF7F2" opacity="0.14"/><circle cx="538" cy="685" r="5" fill="#FAF7F2" opacity="0.14"/><circle cx="210" cy="544" r="2" fill="#FAF7F2" opacity="0.15"/><circle cx="1584" cy="499" r="7" fill="#FAF7F2" opacity="0.10"/><circle cx="350" cy="354" r="7" fill="#FAF7F2" opacity="0.08"/><circle cx="449" cy="96" r="5" fill="#FAF7F2" opacity="0.18"/><circle cx="1556" cy="285" r="7" fill="#FAF7F2" opacity="0.14"/><circle cx="1443" cy="159" r="3" fill="#FAF7F2" opacity="0.09"/><circle cx="26" cy="825" r="6" fill="#FAF7F2" opacity="0.09"/><circle cx="644" cy="777" r="6" fill="#FAF7F2" opacity="0.08"/></g>
  <g><circle cx="2" cy="658" r="4" fill="#C0392B" opacity="0.44"/><circle cx="1464" cy="759" r="2" fill="#C0392B" opacity="0.45"/><circle cx="1431" cy="184" r="5" fill="#C0392B" opacity="0.47"/><circle cx="1032" cy="167" r="2" fill="#C0392B" opacity="0.34"/><circle cx="1076" cy="139" r="5" fill="#C0392B" opacity="0.21"/><circle cx="997" cy="14" r="4" fill="#C0392B" opacity="0.37"/><circle cx="1480" cy="35" r="7" fill="#C0392B" opacity="0.23"/><circle cx="640" cy="161" r="5" fill="#C0392B" opacity="0.30"/><circle cx="589" cy="108" r="4" fill="#C0392B" opacity="0.27"/><circle cx="1433" cy="415" r="6" fill="#C0392B" opacity="0.44"/><circle cx="89" cy="344" r="4" fill="#C0392B" opacity="0.20"/><circle cx="1164" cy="813" r="6" fill="#C0392B" opacity="0.41"/></g>
  <path d="M0 702 Q 480 594 960 666 T 1600 630 L 1600 900 L 0 900 Z" fill="#0E0E0E" opacity="0.22"/>
  <text x="800" y="450" text-anchor="middle" font-family="Georgia, 'Playfair Display', serif" font-size="99" font-weight="700" fill="#FAF7F2" letter-spacing="-1">Biber Tarihi</text>
  <text x="800" y="531" text-anchor="middle" font-family="Inter, system-ui, sans-serif" font-size="32" fill="#FAF7F2" opacity="0.7" letter-spacing="3">BLOG</text>
</svg>