<svg xmlns="http://www.w3.org/2000/svg" width="1600" height="900" viewBox="0 0 1600 900" role="img" aria-label="Mersin">
  <defs>
    <linearGradient id="bg" x1="0" y1="0" x2="1" y2="1">
      <stop offset="0" stop-color="#062818"/>
      <stop offset="1" stop-color="#0a1f3a"/>
    </linearGradient>
    <radialGradient id="glow" cx="0.22" cy="0.2" r="0.9">
      <stop offset="0" stop-color="#D4A017" stop-opacity="0.35"/>
      <stop offset="0.55" stop-color="#D4A017" stop-opacity="0"/>
    </radialGradient>
  </defs>
  <rect width="1600" height="900" fill="url(#bg)"/>
  <rect width="1600" height="900" fill="url(#glow)"/>
  <g><circle cx="1" cy="874" r="2" fill="#FAF7F2" opacity="0.11"/><circle cx="379" cy="544" r="5" fill="#FAF7F2" opacity="0.18"/><circle cx="4" cy="485" r="4" fill="#FAF7F2" opacity="0.13"/><circle cx="66" cy="749" r="7" fill="#FAF7F2" opacity="0.08"/><circle cx="913" cy="367" r="4" fill="#FAF7F2" opacity="0.13"/><circle cx="203" cy="359" r="3" fill="#FAF7F2" opacity="0.11"/><circle cx="1355" cy="835" r="7" fill="#FAF7F2" opacity="0.14"/><circle cx="77" cy="147" r="3" fill="#FAF7F2" opacity="0.11"/><circle cx="1456" cy="464" r="2" fill="#FAF7F2" opacity="0.11"/><circle cx="848" cy="81" r="5" fill="#FAF7F2" opacity="0.11"/><circle cx="149" cy="68" r="4" fill="#FAF7F2" opacity="0.17"/><circle cx="849" cy="767" r="5" fill="#FAF7F2" opacity="0.17"/><circle cx="726" cy="117" r="6" fill="#FAF7F2" opacity="0.11"/><circle cx="963" cy="513" r="2" fill="#FAF7F2" opacity="0.16"/><circle cx="1257" cy="518" r="3" fill="#FAF7F2" opacity="0.09"/><circle cx="1515" cy="666" r="4" fill="#FAF7F2" opacity="0.17"/><circle cx="467" cy="163" r="3" fill="#FAF7F2" opacity="0.16"/><circle cx="370" cy="818" r="5" fill="#FAF7F2" opacity="0.11"/><circle cx="1097" cy="389" r="2" fill="#FAF7F2" opacity="0.14"/><circle cx="1395" cy="589" r="4" fill="#FAF7F2" opacity="0.16"/><circle cx="1399" cy="580" r="7" fill="#FAF7F2" opacity="0.12"/><circle cx="27" cy="329" r="2" fill="#FAF7F2" opacity="0.12"/><circle cx="1554" cy="85" r="4" fill="#FAF7F2" opacity="0.10"/><circle cx="966" cy="183" r="4" fill="#FAF7F2" opacity="0.16"/><circle cx="1344" cy="540" r="4" fill="#FAF7F2" opacity="0.07"/><circle cx="763" cy="720" r="3" fill="#FAF7F2" opacity="0.12"/></g>
  <g><circle cx="2" cy="894" r="7" fill="#D4A017" opacity="0.41"/><circle cx="1569" cy="254" r="3" fill="#D4A017" opacity="0.26"/><circle cx="405" cy="66" r="4" fill="#D4A017" opacity="0.49"/><circle cx="491" cy="229" r="3" fill="#D4A017" opacity="0.35"/><circle cx="24" cy="153" r="4" fill="#D4A017" opacity="0.25"/><circle cx="733" cy="351" r="5" fill="#D4A017" opacity="0.33"/><circle cx="988" cy="84" r="8" fill="#D4A017" opacity="0.32"/><circle cx="371" cy="523" r="4" fill="#D4A017" opacity="0.46"/><circle cx="1429" cy="193" r="7" fill="#D4A017" opacity="0.47"/><circle cx="258" cy="877" r="6" fill="#D4A017" opacity="0.36"/><circle cx="880" cy="313" r="7" fill="#D4A017" opacity="0.35"/><circle cx="49" cy="43" r="2" fill="#D4A017" opacity="0.34"/></g>
  <path d="M0 702 Q 480 594 960 666 T 1600 630 L 1600 900 L 0 900 Z" fill="#0E0E0E" opacity="0.22"/>
  <text x="800" y="450" text-anchor="middle" font-family="Georgia, 'Playfair Display', serif" font-size="99" font-weight="700" fill="#FAF7F2" letter-spacing="-1">Mersin</text>
  <text x="800" y="531" text-anchor="middle" font-family="Inter, system-ui, sans-serif" font-size="32" fill="#FAF7F2" opacity="0.7" letter-spacing="3">BLOG</text>
</svg>