<svg xmlns="http://www.w3.org/2000/svg" width="1200" height="630" viewBox="0 0 1200 630" role="img" aria-label="Uslu Duyar — Tarım Ürünleri">
  <defs>
    <linearGradient id="og" x1="0" y1="0" x2="1" y2="1">
      <stop offset="0" stop-color="#1F7A2A"/>
      <stop offset="1" stop-color="#0C3B16"/>
    </linearGradient>
  </defs>
  <rect width="1200" height="630" fill="url(#og)"/>
  <!-- marka işareti: narenciye + karpuz -->
  <g transform="translate(80,80) scale(1.25)">
    <path d="M24 6 C27 -1 35 -1 39 3 C35 9 28 9 24 6 Z" fill="#43B14E"/>
    <path d="M24 7 A17 17 0 0 0 24 41 Z" fill="#ED8120"/>
    <path d="M24 11 A13 13 0 0 0 24 37 Z" fill="#F8B45E"/>
    <path d="M24 7 A17 17 0 0 1 24 41 Z" fill="#2A5720"/>
    <path d="M24 10 A14 14 0 0 1 24 38 Z" fill="#E23B33"/>
    <g fill="#1C1A12"><ellipse cx="31" cy="18" rx="1.1" ry="1.7"/><ellipse cx="34" cy="24" rx="1.1" ry="1.7"/><ellipse cx="31" cy="30" rx="1.1" ry="1.7"/></g>
  </g>
  <text x="80" y="330" font-family="Georgia, serif" font-size="92" font-weight="800" letter-spacing="-2"><tspan fill="#F8B45E">Uslu</tspan> <tspan fill="#FAF7F2">Duyar</tspan></text>
  <text x="82" y="392" font-family="Inter, sans-serif" font-size="30" fill="#FAF7F2" opacity="0.9">Tarım Ürünleri · Mersin / Çukurova</text>
  <text x="82" y="446" font-family="Inter, sans-serif" font-size="26" fill="#F8B45E">Narenciye · Kavun · Karpuz</text>
  <text x="82" y="540" font-family="Inter, sans-serif" font-size="22" fill="#FAF7F2" opacity="0.7">Aldatılan müşteri, kaybedilen bir servettir.</text>
</svg>
